<svg xmlns="http://www.w3.org/2000/svg" viewBox="0 0 100 100" enable-background="new 0 0 100 100"><circle fill="#ed2121" cx="50.06" cy="50" r="50"/><path fill="#ba1a1a" d="m79.15 47.892l-4.147-1.892h-4.417l-2.332-2.573-7.52-.941 3.999-4.129-28.56-11.695-2.947 2.947-4.487-.922-2.441 2.441-2.503-.073-5.825-1.498-17.844 17.844c-.044.861-.067 1.728-.067 2.6 0 27.614 22.385 49.999 50 49.999.392 0 .779-.021 1.168-.03l30.496-30.494-1.893-1.88 4.328-4.328-6.696-.875 5.716-5.716-4.597 2.545 6.069-6.069-5.5-5.261"/><g fill="#332b2a"><path d="m37.571 36.849h26.335v6.351h-26.335z"/><path d="m24.662 47.892h55.59v16.472h-55.59z"/></g><path fill="#9e9380" d="m71.38 71.899c5.574 0 10.11-4.535 10.11-10.11 0-5.574-4.535-10.11-10.11-10.11h-37.482c-5.574 0-10.11 4.535-10.11 10.11 0 5.574 4.535 10.11 10.11 10.11h37.482"/><path fill="#332b2a" d="m25.04 61.79c0 4.896 3.968 8.865 8.865 8.865h37.481c4.896 0 8.865-3.969 8.865-8.865 0-4.896-3.969-8.865-8.865-8.865h-37.482c-4.896 0-8.864 3.969-8.864 8.865"/><circle fill="#7c7971" cx="71.32" cy="61.79" r="7.701"/><circle fill="#9e9380" cx="71.32" cy="61.79" r="4.793"/><circle fill="#3f3d38" cx="71.32" cy="61.79" r="3.03"/><circle fill="#7c7971" cx="33.969" cy="61.79" r="7.701"/><circle fill="#9e9380" cx="33.969" cy="61.79" r="4.793"/><circle fill="#3f3d38" cx="33.969" cy="61.79" r="3.03"/><circle fill="#7c7971" cx="57.32" cy="61.79" r="4.067"/><circle fill="#3f3d38" cx="57.32" cy="61.79" r="2.573"/><circle fill="#7c7971" cx="47.983" cy="61.79" r="4.067"/><circle fill="#3f3d38" cx="47.983" cy="61.79" r="2.574"/><g fill="#9e9380"><path d="m81.2 60.31h2.955v2.955h-2.955z"/><path d="m21.13 60.31h2.955v2.955h-2.955z"/><path d="m69.819 49.02h2.954v2.955h-2.954z"/><path d="m63.59 49.02h2.955v2.955h-2.955z"/><path d="m57.37 49.02h2.955v2.955h-2.955z"/><path d="m51.15 49.02h2.955v2.955h-2.955z"/><path d="m44.92 49.02h2.955v2.955h-2.955z"/><path d="m38.695 49.02h2.954v2.955h-2.954z"/><path d="m32.47 49.02h2.955v2.955h-2.955z"/><path transform="matrix(-.8646-.5025.5025-.8646 117.41 135.6)" d="m75.5 50.5h2.955v2.955h-2.955z"/><path transform="matrix(-.4922-.8705.8705-.4922 72.25 154.39)" d="m79.68 54.64h2.955v2.955h-2.955z"/><path transform="matrix(.8645-.5026.5026.8645-22.298 21.239)" d="m26.766 50.5h2.955v2.955h-2.955z"/><path transform="matrix(.4921-.8705.8705.4921-36.633 49.44)" d="m22.583 54.641h2.955v2.955h-2.955z"/><path d="m69.819 71.61h2.954v2.955h-2.954z"/><path d="m63.59 71.61h2.955v2.955h-2.955z"/><path d="m57.37 71.61h2.955v2.955h-2.955z"/><path d="m51.15 71.61h2.955v2.955h-2.955z"/><path d="m44.92 71.61h2.955v2.955h-2.955z"/><path d="m38.695 71.61h2.954v2.955h-2.954z"/><path d="m32.47 71.61h2.955v2.955h-2.955z"/><path transform="matrix(-.8645.5026-.5026-.8645 179.51 94.82)" d="m75.5 70.13h2.955v2.955h-2.955z"/><path transform="matrix(-.4921.8706-.8706-.4921 179.83 30)" d="m79.68 65.984h2.956v2.956h-2.956z"/><path transform="matrix(.8645.5027-.5027.8645 39.824-4.493)" d="m26.766 70.13h2.955v2.955h-2.955z"/><path transform="matrix(.4921.8706-.8706.4921 70.951 13.321)" d="m22.582 65.984h2.956v2.955h-2.956z"/></g><path fill="#706b40" d="m75.27 46.673l-4.469-6.946h-38.02v6.946"/><path fill="#59542f" d="m17.968 29.564h21.536v2.973h-21.536z"/><path fill="#706b40" d="m28.736 28.691h10.768v4.727h-10.768z"/><g fill="#918e5d"><path d="m27.09 45.87l.02.039v-.039h51.09l6.45 4.63v2.65l-7.37-5.258h-49.28l-7.36 5.258v-2.65z"/><path d="m64.865 38.482h-28.694v-11.82l20.84-3.577c0 0 7.854-1.555 7.854 5.521v9.876"/></g><circle fill="#706b40" cx="53.987" cy="31.05" r="4.388"/></svg>