<svg xmlns="http://www.w3.org/2000/svg" viewBox="0 0 100 100" enable-background="new 0 0 100 100"><circle fill="#4f1c4e" cx="50" cy="50" r="50"/><path fill="#411742" d="m51.564 26.986l-2.533-4.943-4.834-4.771-43.11 43.11c4.781 22.63 24.86 39.616 48.913 39.616.586 0 1.167-.023 1.75-.044l24.941-24.942-20.18-52.97-4.943 4.943"/><path fill="#fff4c5" d="m56.51 26.02h9.965v15.757h-9.965z"/><path fill="#b3b767" d="m73.47 57.62v-16.971-2.237-1.018h-.066v-5.252l-6.869 5.252-4.914-4.916-4.916 4.916-6.58-5.252v5.252 8.08 7.834c0 0 .195 7.892-7.893 7.892h-15.742l-7.502-7.501c-2.934 2.934-2.936 7.693-.001 10.627 1.056 1.056 2.35 1.727 3.709 2.02l11.38 11.381h2.697c0 0 6.397 4.445 13.13 0h21.951c0 0 7.541-1.214 7.361-10.214l-5.745-9.895"/><g fill="#e5e583"><circle cx="22.756" cy="66.39" r="2.626"/><circle cx="26.527" cy="70.26" r="2.626"/><circle cx="30.3" cy="73.937" r="2.626"/><circle cx="33.977" cy="75.87" r="1.86"/><path d="m20.719 60.708l2.628-2.627-3.156-3.155c-1.364 1.604-1.306 4 .21 5.521.099.097.211.175.318.261"/></g><path fill="#8e8e40" d="m65.16 67.63c3.104 0 5.621-2.518 5.621-5.622h-11.244c0 3.104 2.518 5.622 5.623 5.622"/><path fill="#fff4c5" d="m56.51 30.661c0-.268 0-8.618 0-8.618l4.982 3.972 4.982-3.972v5.656c0 0-2.154 2.153-2.424 2.289-.27.134-2.559.673-2.559.673l-.875-.335"/><path fill="#ef2231" d="m44.985 23.04l-.007.01 7.356 5.352-1.46-8.977h-.01c-.057-.553-.224-1.101-.535-1.608-1.111-1.807-3.475-2.369-5.281-1.258-1.805 1.111-2.367 3.475-1.257 5.279.311.506.726.903 1.194 1.202"/></svg>