<svg xmlns="http://www.w3.org/2000/svg" viewBox="0 0 100 100" enable-background="new 0 0 100 100"><circle cx="50" cy="50" r="50" fill="#3f273f"/><g fill="#321e33"><path d="m83.2 64.4l-23.1-18.7-20 20v-.6l-12 12-10.7 10.8c10.5 9.1 24 13 37 11.9l29.4-29.4-4.8-1.7 4.2-4.3" opacity=".8"/><path d="m16.8 87.4l17.9-17.9-3.8-4.4 23.5-23.5-4.2-2.3 3.1-3.1-1.1-18.6-20.5 1.4-1.1-2-30.5 30.7c-.7 13.6 4.2 27.3 14.5 37.7.8.7 1.5 1.3 2.2 2" opacity=".8"/></g><g fill="#64cce9"><path d="m54.4 33.9c0 1.9-1.5 3.4-3.3 3.4h-18.2c-1.8 0-3.3-1.5-3.3-3.4v-14.3c0-1.9 1.5-3.4 3.3-3.4h18.2c1.8 0 3.3 1.5 3.3 3.4v14.3"/><path d="m54.4 40c0 .9-.8 1.7-1.7 1.7h-21.5c-.9 0-1.7-.8-1.7-1.7v-.3c0-.9.8-1.7 1.7-1.7h21.5c.9 0 1.7.8 1.7 1.7v.3"/></g><path fill="#3f273f" d="m31.8 19.1h20.5v15.2h-20.5z"/><path fill="#64cce9" d="m29.6 38h24.9v3.7h-24.9z"/><g fill="#e54545"><path d="m83.8 62.6c0 1.9-1.5 3.4-3.3 3.4h-18.2c-1.8 0-3.3-1.5-3.3-3.4v-14.3c0-1.9 1.5-3.4 3.3-3.4h18.2c1.8 0 3.3 1.5 3.3 3.4v14.3"/><path d="m83.8 68.7c0 .9-.8 1.7-1.7 1.7h-21.5c-.9 0-1.7-.8-1.7-1.7v-.3c0-.9.8-1.7 1.7-1.7h21.5c.9 0 1.7.8 1.7 1.7v.3"/></g><path fill="#3f273f" d="m61.1 47.9h20.5v15.2h-20.5z"/><path fill="#e54545" d="m58.9 66.7h24.9v3.7h-24.9z"/><g fill="#91db61"><path d="m35.6 48.7c0 1.7-1.3 3-3 3-1.7 0-3-1.3-3-3 0-1.7 1.3-3 3-3 1.6 0 3 1.4 3 3"/><path d="m35.6 58c0 1.7-1.3 3-3 3-1.7 0-3-1.3-3-3 0-1.7 1.3-3 3-3 1.6 0 3 1.4 3 3"/><path d="m35.6 67.4c0 1.7-1.3 3-3 3-1.7 0-3-1.3-3-3 0-1.7 1.3-3 3-3 1.6 0 3 1.4 3 3"/><path d="m42.1 64.4c1.7 0 3 1.3 3 3 0 1.7-1.3 3-3 3-1.7 0-3-1.3-3-3 0-1.6 1.3-3 3-3"/><path d="m51.4 64.4c1.7 0 3 1.3 3 3 0 1.7-1.3 3-3 3-1.7 0-3-1.3-3-3 0-1.6 1.3-3 3-3"/></g></svg>