<svg xmlns="http://www.w3.org/2000/svg" viewBox="0 0 100 100" enable-background="new 0 0 100 100"><circle fill="#ed2121" cx="50.06" cy="50" r="50"/><path fill="#ba1a1a" d="m48.17 99.95l25.475-25.475-52.21-52.751-20.829 20.828c-.363 2.43-.555 4.916-.555 7.447 0 26.982 21.377 48.959 48.12 49.951"/><g fill="#b2662d"><path transform="matrix(.7071-.7071.7071.7071-22.898 55.26)" d="m43.19 33.877h24.13v42.783h-24.13z"/><path d="m23.92 19.245l-4.961 4.961c-2.316 5.972.91 15.333 8.395 22.818l16.14 16.14 19.385-19.384-16.15-16.14c-7.485-7.486-16.846-10.711-22.818-8.395"/></g><g fill="#d39439"><path transform="matrix(.7071-.7071.7071.7071-21.652 52.25)" d="m37.12 30.869h30.25v42.783h-30.25z"/><path transform="matrix(.7071-.7071.7071.7071-29.661 71.58)" d="m56.45 68.1h30.25v6.999h-30.25z"/></g><g fill="#f4b056"><path transform="matrix(.7071-.7071.7071.7071-24.314 73.8)" d="m69.36 62.75h15.13v6.999h-15.12z"/><path transform="matrix(-.7071.7071-.7071-.7071 131.54 39.766)" d="m49.973 25.856h15.13v42.539h-15.12z"/><path transform="matrix(.7071-.7071.7071.7071-33.23 70.11)" d="m65.967 71.66h4.093v6.999h-4.093z"/><path transform="matrix(-.7071.7071-.7071-.7071 122.52 61.55)" d="m46.621 34.88h3.781v42.539h-3.781z"/></g><g fill="#ffd67b"><path transform="matrix(.7071-.7071.7071.7071-23.875 73.98)" d="m74.01 62.31h6.707v6.999h-6.707z"/><path transform="matrix(-.7071.7071-.7071-.7071 131.71 39.36)" d="m54.63 25.689h6.145v42.539h-6.145z"/></g><path fill="#cc7940" d="m23.92 19.245l-2.481 2.481 14.04 14.04 9.645-9.645c-7.177-6.39-15.651-9.02-21.2-6.873"/><path fill="#e89054" d="m22.664 20.501l-.11.11c6.284 2.657 16.265 11.809 16.265 11.809l4.345-4.345c-11.925-9.358-19.2-7.936-20.5-7.574"/></svg>