<svg xmlns="http://www.w3.org/2000/svg" viewBox="0 0 100 100" enable-background="new 0 0 100 100"><circle fill="#232c3a" cx="49.999" cy="50" r="50"/><path opacity=".7" fill="#131a26" d="m.2 54.39c.989 11.296 5.799 22.321 14.443 30.965 9.995 9.995 23.17 14.86 36.27 14.624l25.482-25.482-59.39-36.906-16.799 16.799"/><path fill="#e0c5a9" d="m47.44 68.73c.298 1.652-.766 3.218-2.348 3.499l-18.742 3.303c-1.592.281-3.115-.829-3.412-2.481l-5.887-33.393c-.292-1.651.768-3.222 2.353-3.503l18.742-3.304c1.595-.281 3.114.835 3.41 2.487l5.884 33.392"/><path fill="#c4ad97" d="m40.961 53.1l-17.281 3.05-.157-.87 17.28-3.05z"/><g fill="#232c3a"><path d="m30.531 60.49c.177.968-.47 1.888-1.438 2.062-.965.168-1.89-.477-2.059-1.443-.171-.967.476-1.892 1.44-2.061.965-.168 1.885.476 2.057 1.442"/><path d="m39.29 58.951c.161.967-.484 1.887-1.447 2.06-.972.17-1.888-.475-2.064-1.442-.162-.967.483-1.892 1.447-2.059.97-.17 1.886.476 2.064 1.441"/><path d="m31.946 68.5c.17.967-.475 1.888-1.442 2.058-.972.172-1.891-.476-2.058-1.441-.172-.966.473-1.887 1.438-2.058.971-.172 1.887.473 2.062 1.441"/><path d="m40.7 66.957c.162.967-.483 1.89-1.446 2.059-.966.171-1.889-.475-2.061-1.439-.167-.968.479-1.89 1.449-2.062.964-.171 1.881.474 2.058 1.442"/><path d="m35.615 63.728c.164.965-.473 1.888-1.446 2.058-.963.17-1.888-.476-2.057-1.443-.166-.965.478-1.886 1.445-2.059.965-.171 1.887.476 2.058 1.444"/><path d="m35.771 39.06c.177.967-.468 1.887-1.438 2.057-.965.174-1.881-.473-2.058-1.437-.171-.968.475-1.891 1.439-2.061.966-.173 1.894.474 2.057 1.441"/><path d="m28.433 48.608c.175.967-.472 1.887-1.438 2.062-.969.166-1.886-.477-2.062-1.444-.169-.967.479-1.891 1.445-2.059.968-.169 1.89.477 2.055 1.441"/></g><path fill="#e0c5a9" d="m58.45 35.34c.296-1.653 1.816-2.766 3.408-2.484l18.739 3.303c1.588.281 2.648 1.851 2.359 3.501l-5.889 33.392c-.295 1.652-1.822 2.765-3.413 2.484l-18.742-3.303c-1.581-.281-2.645-1.85-2.349-3.503l5.887-33.39"/><path fill="#c4ad97" d="m59.19 52.23l17.28 3.05-.15.87-17.29-3.05z"/><g fill="#232c3a"><path d="m62.697 47.03c.176-.964 1.092-1.611 2.061-1.442.968.17 1.612 1.092 1.438 2.059-.163.967-1.093 1.613-2.06 1.444-.965-.17-1.61-1.094-1.439-2.061"/><path d="m72.865 40.571c.161-.965 1.092-1.612 2.058-1.438.964.169 1.61 1.091 1.439 2.056-.178.968-1.094 1.615-2.058 1.442-.971-.171-1.616-1.094-1.439-2.06"/><path d="m67.78 43.806c.169-.967 1.095-1.614 2.06-1.444.97.17 1.613 1.093 1.438 2.061-.163.965-1.093 1.612-2.058 1.442-.964-.172-1.611-1.092-1.44-2.059"/><path d="m59.2 67.19c.174-.965 1.093-1.61 2.062-1.439.968.167 1.612 1.09 1.435 2.057-.168.968-1.091 1.614-2.057 1.442s-1.611-1.092-1.44-2.06"/><path d="m69.37 60.731c.166-.968 1.091-1.613 2.057-1.444.962.174 1.61 1.093 1.443 2.059-.176.967-1.093 1.612-2.058 1.443-.969-.171-1.615-1.093-1.442-2.058"/></g><path fill="#f8ebda" d="m62.45 61.37c0 1.679-1.305 3.038-2.92 3.038h-19.02c-1.615 0-2.936-1.359-2.936-3.038v-33.907c0-1.679 1.32-3.041 2.936-3.041h19.02c1.615 0 2.92 1.362 2.92 3.041v33.907"/><path fill="#232c3a" d="m51.808 34.19c0 1.01-.82 1.826-1.821 1.826-1.017 0-1.836-.815-1.836-1.826 0-1.01.819-1.825 1.836-1.825 1 .001 1.821.818 1.821 1.825"/><path fill="#e0c5a9" d="m40.991 43.963h18.04v.913h-18.04z"/><g fill="#232c3a"><path d="m52.696 58.717c0-1.01.809-1.826 1.824-1.826 1.014 0 1.832.817 1.832 1.826s-.818 1.825-1.832 1.825c-1.015 0-1.824-.816-1.824-1.825"/><circle cx="45.38" cy="58.717" r="1.828"/><path d="m52.696 50.36c0-1.01.809-1.829 1.824-1.829 1.014 0 1.832.822 1.832 1.829 0 1.01-.818 1.828-1.832 1.828-1.015 0-1.824-.819-1.824-1.828"/><path d="m43.557 50.36c0-1.01.817-1.829 1.828-1.829 1.01 0 1.828.822 1.828 1.829 0 1.01-.82 1.828-1.828 1.828-1.01 0-1.828-.819-1.828-1.828"/></g></svg>