<svg xmlns="http://www.w3.org/2000/svg" viewBox="0 0 100 100" enable-background="new 0 0 100 100"><circle cx="50" cy="50" r="50" fill="#38afb2"/><path d="m60.9 41.3c0 0 22.7-29.5-11.8-25l-20.4 11.7-28.3 28.2c1.3 10.6 6.1 20.9 14.2 29.1 5.9 5.9 12.9 10 20.4 12.4l25.9-25.9c0 0 19.7-26.5 0-30.5" fill="#229696"/><path d="m64 39.9c9.3-7.8 9.3-17.2 9.3-17.2 1.1-5.3-9.8-18-33.7-3.4s-11.1 23.4-11.1 23.4-1.8-9 13.7-17.5c-3 10.7-11.5 43.4-9.2 58.3 0 0 .9 4.9 2.6 3.9 1.7-1.1 2.3-8.2 2.3-8.2s6.7-44.7 14.6-58.3c15-4.2 16.7 7.1 5.5 19 0 0-11.6 2.7-11.2 9.1.4 6.4 12.4-3.8 12.4-3.8s6.6-.5 6.5 6.5c-13.9 5.8-22.1 15.3-23 22.9-1 7.9 7.8 4.8 7.8 4.8 16.1-7.9 22.3-26.5 22.3-26.5 4-14.7-8.8-13-8.8-13m-13.4 32.3c-4.5-2.4 5.4-12 14.8-16.8-.4 1.7-1.1 3.7-2.2 6.1-.1 0-7.7 13.4-12.6 10.7" fill="#ff6caf"/></svg>