<svg enable-background="new 0 0 100 100" viewBox="0 0 100 100" xmlns="http://www.w3.org/2000/svg"><path d="m85.36 14.64c-19.53-19.53-51.19-19.53-70.71 0-19.53 19.53-19.53 51.18 0 70.71s51.19 19.53 70.71 0c19.52-19.52 19.52-51.18 0-70.71z" fill="#e62a28"/><path d="m78.5 61.24-2.67-2.48-2.62-4.73-6.46 6.46-3.1-4.81 4.19-4.52 4.05-3.67 6.62-10-3.38-6.92-13.19 13.19-14.68-2.02-19.7-14.91-6.93-6.21-19.68 19.68c-3.11 15.8 1.45 32.81 13.7 45.06 10.03 10.03 23.26 14.89 36.4 14.62l5.43-5.43 30.9-30.9z" fill="#ba1d1d" opacity=".7"/><path d="m66.45 73.52-2.81 13.86-5.52-5.53.3-16.36z" fill="#a09184"/><path d="m73.52 66.45 13.86-2.81-5.53-5.52-16.36.3z" fill="#b2a99a"/><path d="m71.84 72.7c-.19-.73-.59-1.45-1.18-2.05l-14.99-14.98c-1.59-1.59-4.03-1.76-5.42-.38s-1.22 3.83.38 5.42l14.98 14.99c.6.6 1.31.99 2.05 1.18z" fill="#493d45"/><path d="m76.89 67.66c-.19-.73-.59-1.45-1.18-2.05l-14.99-14.99c-1.59-1.59-4.03-1.76-5.42-.38-1.39 1.39-1.22 3.83.38 5.42l14.99 14.99c.6.6 1.31.99 2.05 1.18z" fill="#695d66"/><path d="m39.93 49.94-6.29 25.52-3.07-.34 8.72 8.72 22.37-17.77z" fill="#a09184"/><path d="m49.94 39.93 25.52-6.29-.34-3.07 8.72 8.72-17.77 22.37z" fill="#b2a99a"/><path d="m32.1 38.38-1.27 4.14 5.6 5.6.92 7.41 10.75 10.75 6.98-.16 5.76 5.76s-1.42-5.1 4.91-6.12l-15.67-11.89z" fill="#b2a99a"/><path d="m38.38 32.1 4.14-1.27 5.6 5.6 7.41.92 10.75 10.75-.16 6.98 5.76 5.76s-5.1-1.42-6.12 4.91l-11.89-15.67z" fill="#d1ccbf"/><path d="m50.08 42.51s-.61-.61-10.91-10.91c-.15-.15-.31-.3-.46-.45-2.98-2.91-5.77-5.01-8.23-6.54l-2.05.95-3.31 2.62-.51 2.3c1.53 2.46 3.62 5.25 6.54 8.23.15.15.3.3.45.46 10.3 10.3 10.91 10.91 10.91 10.91s12.94 12.51 23.25 15.68c-3.17-10.31-15.68-23.25-15.68-23.25z" fill="#eaeaea"/><path d="m26.83 26.83-1.71 1.35-.51 2.3c1.53 2.46 3.62 5.25 6.54 8.23.15.15.3.3.45.46 10.3 10.3 10.91 10.91 10.91 10.91s12.94 12.51 23.25 15.68z" fill="#d1ccbf"/><path d="m24.61 30.5 5.88-5.88c-5.89-3.65-9.87-3.99-9.87-3.99s.34 3.98 3.99 9.87z" fill="#695d66"/><path d="m27.55 27.55-6.93-6.93s.33 3.99 3.99 9.87z" fill="#493d45"/><path d="m44.08 44.08c-1.22 1.22-7.6-3.17-8.63-4.2l-4.37-4.37c-1.03-1.03-2.47-4.46-1.25-5.68 1.22-1.22 4.65.22 5.68 1.25l4.37 4.37c1.03 1.03 5.42 7.41 4.2 8.63z" fill="#34333b"/><path d="m53.27 61.24 3.11 11.89-2.35.08 6.14 6.13 4.08-7.11z" fill="#eaeaea"/><path d="m61.24 53.27 11.89 3.11.08-2.35 6.13 6.14-7.11 4.08z" fill="#a09184"/></svg>