<svg enable-background="new 0 0 100 100" viewBox="0 0 100 100" xmlns="http://www.w3.org/2000/svg"><path d="m82.1 64.3 5.6-9.1-2.8-15.6-.5-5.1 8.7-10.5 6.5-12.3c.9-1.6 0-3.3-1.7-3.3h-12l-6.2 7.4-9.4-7.4h-15.5l-8.3 6.3-7.2-6.3h-15.6l-2.7 15.5 4.7 6-7.5 9.7-2.7 15.6 12.8 15.6h15.5l5.1-4.6 10.4 4.6h15.5l7.2-5.7z" fill="#fff"/><g fill="#687696"><path d="m77.7 55.1-2.7 15.6h12c1.7 0 3.2-1.7 2.9-3.3l-2.2-12.3z"/><path d="m64.9 39.5h15.5l-2.7 15.6h-15.6z"/><path d="m83.1 23.9-2.7 15.6h4.5l8.3-15.6z"/><path d="m70.3 8.3h15.6l-2.8 15.6h-15.5z"/><path d="m46.6 55.1h15.5l-2.7 15.6h-15.6z"/><path d="m33.8 39.5h15.5l-2.7 15.6h-15.6z"/><path d="m52.1 23.9h15.5l-2.7 15.6h-15.6z"/><path d="m39.3 8.3h15.5l-2.7 15.6h-15.6z"/><path d="m15.5 55.1h15.5l-2.7 15.6h-15.6z"/><path d="m21 23.9h15.5l-2.7 15.6h-15.6z"/></g><path d="m3.9 99c-2.6 0-4.3-2.1-3.8-4.7l15.9-90.6c.4-2.6 2.9-4.7 5.4-4.7 2.6 0 4.3 2.1 3.8 4.7l-15.9 90.6c-.4 2.6-2.9 4.7-5.4 4.7z" fill="#d3853a"/></svg>