<svg xmlns="http://www.w3.org/2000/svg" viewBox="0 0 100 100" enable-background="new 0 0 100 100"><circle fill="#232c3a" cx="50" cy="50" r="50"/><path opacity=".7" fill="#131a26" d="m28.1 49.48l-22.838 22.837c2.346 4.701 5.464 9.114 9.383 13.03 6.869 6.868 15.239 11.31 24.05 13.346l23.368-23.367-2.397-1.608 13.326-13.326-44.895-10.916"/><path fill="#f8ebda" d="m73.888 55.19c-.393-8.271-9.05-11.442-14.217-16.541-3.746-3.692-6.998-8.09-9.188-12.884-.165-.367-.334-.729-.469-1.102 0 0-.014.02-.023.056 0-.022 0-.043 0-.043-.138.37-.301.737-.469 1.095-2.186 4.803-5.445 9.192-9.191 12.89-5.171 5.102-13.825 8.268-14.219 16.545-.213 4.436 2.01 8.815 5.982 10.921 2.328 1.225 5.01 1.566 7.604 1.315 1.649-.155 3.279-.55 4.836-1.084.39-.128 2.114-.705 3.484-1.288-.458 2.845-2.418 6.921-9.867 6.639v3.622h11.571.767 11.576v-3.622c-7.377.282-9.362-3.718-9.851-6.547 1.328.548 2.888 1.062 3.248 1.187 1.57.531 3.193.922 4.849 1.083 2.59.255 5.268-.093 7.596-1.322 3.982-2.101 6.195-6.482 5.981-10.92"/></svg>