<svg enable-background="new 0 0 100 100" viewBox="0 0 100 100" xmlns="http://www.w3.org/2000/svg"><path d="m99.6 58.1c-.8-17.2-18.8-23.9-29.5-34.5-4.3-4.3-8.2-9-11.7-14l-.4-.5c-1.1-1.7-2.2-3.4-3.2-5.1l-1.3-2.1c-1.6-2.5-5.3-2.5-6.9 0l-1.4 2.1c-1 1.7-2.1 3.4-3.2 5.1l-.4.6c-3.5 5-7.4 9.7-11.7 14-10.7 10.6-28.7 17.2-29.5 34.4-.4 9.3 4.2 18.4 12.5 22.8 4.9 2.5 10.4 3.2 15.8 2.7 3.4-.3 6.8-1.2 10.1-2.3.8-.3 4.4-1.5 7.2-2.7-.9 5.4-4.3 13-16.9 13.8-1.7.1-3.3 1.3-3.6 3.1-.5 2.4 1.4 4.5 3.7 4.5l20.3-.1h.3.3l20.1.1c2 0 3.9-1.5 4-3.5.1-2.1-1.5-3.9-3.6-4.1-12.6-.8-16-8.4-16.9-13.8 2.9 1.2 6.4 2.4 7.2 2.7 3.3 1.1 6.6 1.9 10.1 2.3 5.4.5 11-.2 15.8-2.7 8.6-4.4 13.2-13.5 12.8-22.8z" fill="#dddddc"/><g fill="#fff"><path d="m56.6 85.5-14.4 14.5h7.5.3.3 4.1l9.1-9.1c-3.2-1.3-5.4-3.2-6.9-5.4z"/><path d="m95.8 46.4-34.8 34.8c.1 0 .2.1.2.1 3.1 1.1 6.4 1.9 9.7 2.2l28.4-28.4c-.6-3.3-1.8-6.1-3.5-8.7z"/><path d="m12.9 80.9c4.5 2.4 9.7 3.1 14.7 2.8l52.1-52.1c-3.4-2.5-6.8-5.1-9.7-7.9-4.3-4.3-8.2-9-11.7-14l-.3-.6c-.1-.2-.3-.4-.4-.6l-56.6 56.6c1.6 6.6 5.7 12.5 11.9 15.8z"/></g></svg>