<svg xmlns="http://www.w3.org/2000/svg" viewBox="0 0 100 100" enable-background="new 0 0 100 100"><circle fill="#ed2121" cx="50.02" cy="50" r="50"/><path opacity=".7" fill="#ba1a1a" d="m68.39 22.14l-10.871 10.871-10.316-14.644-3.87-1.089-16.87 16.869-.308-7.564-26.17 26.17c1.383 25.461 21.81 45.853 47.29 47.18l26.12-25.84 1.317-3.09h-6.777l12.402-12.991-11.938-35.872"/><path fill="#ceccc0" d="m80.26 45.23c-2.204.664-4.476-.601-5.14-2.806-.267-.885-.206-1.795.09-2.606 0-.002-.025.004-.024.004.077-.215.158-.42.269-.619 1.614-3.703 1.787-6.802 1.156-9.37-2.303-3.04-5.094-5.63-8.219-7.693.259.983.16 2.063-.36 3.03-1.089 2.028-3.61 2.802-5.639 1.713-.814-.437-1.373-1.022-1.79-1.884 0 0-.007-.012-.008-.013-.097-.204-.177-.412-.239-.628-1.47-3.747-3.528-6.07-5.778-7.435-3.662-.511-7.457-.42-11.243.353.865.519 1.548 1.348 1.861 2.386.664 2.205-.584 4.504-2.789 5.168-.885.267-1.793.275-2.604-.112-.001 0 .004.047.003.047-.215-.077-.42-.147-.619-.257-3.703-1.615-6.803-1.782-9.371-1.15-3.04 2.302-5.63 5.097-7.693 8.221.985-.261 2.068-.159 3.037.361 2.028 1.089 2.748 3.628 1.659 5.656-.437.814-1.028 1.421-1.932 1.806 0 0 .042-.01.041-.01-.204.097-.388.169-.604.232-3.761 1.476-6.069 3.538-7.435 5.799-.509 3.661-.408 7.451.367 11.236.516-.874 1.351-1.566 2.398-1.881 2.205-.664 4.554.57 5.218 2.774.267.885.236 1.778-.052 2.587 0 0-.012.014-.012.014-.077.215-.177.429-.287.628-1.615 3.702-1.797 6.807-1.165 9.375 2.302 3.04 5.089 5.633 8.214 7.695-.259-.983-.162-2.062.358-3.03 1.089-2.028 3.625-2.757 5.653-1.668.814.437 1.387 1.067 1.804 1.929 0 0-.008-.033-.008-.032.097.204.169.39.232.606 1.47 3.746 3.523 6.05 5.773 7.424 3.662.512 7.456.415 11.242-.359-.864-.52-1.547-1.352-1.859-2.39-.664-2.205.58-4.554 2.785-5.218.885-.267 1.837-.239 2.602.062 0 .001-.003.002-.002.002.215.077.418.173.617.283 3.704 1.615 6.806 1.794 9.375 1.162 3.04-2.302 5.631-5.091 7.694-8.215-.991.266-2.082.172-3.056-.352-2.028-1.089-2.827-3.605-1.737-5.634.437-.814 1.188-1.431 1.834-1.777s.036-.011.037-.012c.204-.097.437-.183.653-.245 3.792-1.488 6.128-3.578 7.496-5.862.504-3.666.404-7.463-.379-11.251-.505.911-1.346 1.631-2.424 1.955m-28.78 9.752c-2.753.829-5.657-.73-6.486-3.483-.829-2.753.73-5.656 3.483-6.486 2.753-.829 5.657.73 6.486 3.483s-.73 5.657-3.483 6.486"/><path fill="#b2afa1" d="m68.03 25.17c-1.089 2.028-3.61 2.802-5.639 1.713-.814-.437-1.373-1.022-1.79-1.884 0 0-.007-.012-.008-.013-.097-.204-.177-.412-.239-.628-1.47-3.747-3.528-6.07-5.778-7.435-3.662-.511-7.457-.42-11.243.353.865.519 1.548 1.348 1.861 2.386.664 2.205-.584 4.504-2.789 5.168-.885.267-1.793.275-2.604-.112-.001 0 .004.047.003.047-.215-.077-.42-.147-.619-.257-3.703-1.615-6.803-1.782-9.371-1.15-1.304.988-2.524 2.069-3.656 3.224l19.941 19.943c.617-.692 1.427-1.227 2.38-1.514 2.753-.829 5.656.731 6.486 3.483.602 1.999-.056 4.077-1.516 5.383l19.938 19.938c1.674-1.648 3.163-3.462 4.447-5.407-.991.266-2.082.172-3.056-.352-2.028-1.089-2.827-3.605-1.738-5.634.437-.814 1.129-1.431 1.834-1.777s.037-.011.038-.012c.204-.097.437-.183.653-.245 3.792-1.488 6.128-3.578 7.496-5.862.504-3.666.404-7.463-.379-11.251-.502.909-1.343 1.629-2.421 1.953-2.204.664-4.476-.601-5.14-2.806-.267-.885-.206-1.795.09-2.606 0-.002-.025.004-.024.004.077-.215.158-.419.269-.619 1.614-3.703 1.787-6.802 1.156-9.37-2.303-3.04-5.094-5.63-8.219-7.693.257.984.157 2.064-.363 3.03"/><g fill="#a09d8e"><path d="m43.44 28.27c-12 3.615-18.797 16.272-15.183 28.27 3.615 12 16.272 18.797 28.27 15.183 12-3.615 18.797-16.273 15.183-28.27-3.614-12-16.272-18.797-28.27-15.183m12.766 42.38c-11.408 3.436-23.441-3.03-26.878-14.434-3.436-11.408 3.03-23.441 14.434-26.877s23.442 3.03 26.878 14.434c3.437 11.408-3.03 23.441-14.434 26.877"/><path d="m44.23 30.896c-10.548 3.177-16.523 14.303-13.346 24.851 3.177 10.548 14.304 16.523 24.852 13.346 10.548-3.177 16.523-14.303 13.346-24.851-3.178-10.548-14.304-16.524-24.852-13.346m11.222 37.25c-10.03 3.02-20.605-2.66-23.626-12.688-3.02-10.03 2.66-20.605 12.688-23.626 10.03-3.02 20.605 2.66 23.626 12.688 3.02 10.03-2.661 20.606-12.688 23.626"/></g><path opacity=".53" fill="#ff1d1d" d="m55.988 64.7l-.445 9.119-4.726-10.775-2.111 4.134-1.86-6.459c0 0-4.048 13.09-4.134 13.1-.086.01-8.526-24.381-8.526-24.381s-3.789 6.975-3.789 7.01c0 .039-4.909-13.253-4.909-13.253s-1.467 6.106-2.811 11.812c1.021.486 1.842 1.379 2.193 2.543.267.885.236 1.778-.052 2.587 0 0-.012.014-.012.014-.077.215-.177.429-.287.628-1.615 3.703-1.797 6.807-1.165 9.375 2.302 3.04 5.089 5.633 8.214 7.695-.259-.983-.162-2.062.358-3.03 1.089-2.028 3.625-2.757 5.653-1.668.814.437 1.387 1.067 1.804 1.929 0 0-.008-.033-.008-.032.097.204.169.39.231.606 1.47 3.746 3.523 6.05 5.773 7.424 3.662.512 7.456.415 11.242-.359-.864-.52-1.547-1.352-1.859-2.39-.664-2.205.58-4.554 2.785-5.218.885-.267 1.837-.239 2.602.062 0 .001-.003.002-.002.002.215.077.418.173.617.283 1.208.527 2.351.9 3.434 1.143l-8.21-11.905"/></svg>