<svg xmlns="http://www.w3.org/2000/svg" viewBox="0 0 100 100" enable-background="new 0 0 100 100"><circle cx="50" cy="50" r="50" fill="#2b3447"/><path d="M0.3,55.8C3,78.9,21.4,97.2,44.6,99.7l28.5-28.5L29,27.1L0.3,55.8z" opacity=".5" fill="#131a26"/><circle cx="50" cy="50" r="31.1" fill="#cc6825"/><g fill="#ffb25f"><path d="m41.4 58.8c-6-6-14-9.4-22.5-9.5 0 .3 0 .5 0 .8 0 .5 0 1 0 1.6 7.9.1 15.2 3.2 20.8 8.8 5.6 5.6 8.7 13 8.8 20.8.5 0 1 0 1.6 0 .3 0 .5 0 .8 0-.1-8.5-3.5-16.5-9.5-22.5"/><path d="m81.2 48.5c-7.9-.1-15.2-3.2-20.8-8.8-5.6-5.6-8.7-13-8.8-20.8-.5 0-1 0-1.6 0-.3 0-.5 0-.8 0 .1 8.5 3.5 16.5 9.5 22.5 6 6 14 9.4 22.5 9.5 0-.3 0-.5 0-.8.1-.5.1-1 0-1.6"/><path d="m71.2 73.1c.7-.6 1.3-1.2 1.9-1.9l-44.1-44.1c-.7.6-1.3 1.2-1.9 1.9l44.1 44.1"/><path d="m29 73.1l44.1-44.1c-.6-.7-1.2-1.3-1.9-1.9l-44.1 44.1c.6.7 1.2 1.3 1.9 1.9"/></g></svg>