<svg xmlns="http://www.w3.org/2000/svg" viewBox="0 0 100 100" enable-background="new 0 0 100 100"><circle fill="#ed2121" cx="50" cy="50" r="50"/><path opacity=".7" fill="#ba1a1a" d="m.244 54.953c2.305 23.446 20.805 42.13 44.16 44.734l27.08-27.08-39.761-49.14-31.479 31.479"/><ellipse fill="#353d4f" cx="50.11" cy="56.04" rx="22.891" ry="20.249"/><path fill="#d1cbb8" d="m77.37 41.3c-1.451-13.759-13.399-24.802-27.23-24.802l-.039.797c-.006 0-.011.002-.012.007-.23 1.305-6.34 17.97-6.372 18.06-.001.002 0 .002.001.004l6.308 27.333c.002.009.013.013.021.007l1.82-1.471c0 0 1.456 7.08 1.658 7.163 4.297 1.771 2.473 3.29 2.473 3.29l-2.185 1.678c-.004.003-.008.004-.013.002l-3.697-1.37c-.007-.003-.014.001-.017.008l-1.761 4.952c-.001.003-.001.007 0 .01l1.583 3.443c.502.005 1.481-.004 1.481-.026v2.991c0 .006.005.012.012.013 2.459.464 3.705-.569 3.738-.597.003-.003.001-.003.001-.007v-2.746c0-.007.006-.012.013-.013 1.232-.137 1.242-.314 2.47-.539.008-.002.017.005.017.013v2.805c0 .006.004.012.01.014 1.234.42 2.465-1.084 2.489-1.114.002-.002 0-.002 0-.005v-2.455c0-.007.006-.012.013-.013 1.237-.136 1.237-.281 1.237-.437v-1.375c0-2.75 2.44-2.125 2.44-2.125h3.755c4.02 0 4.763-3.076 4.763-3.076l2.752-7.173c.001-.002.001-.005 0-.008l-1.608-5.986c-.001-.003 0-.007.001-.01 3.046-4.954 4.561-10.8 3.882-17.24m-11.959 23.643c-5.01 1.602-10.2-.639-11.597-5.01-.629-1.965-.38-4.02.537-5.843.002-.003.004-.005.007-.007l12.419-4.967c.003-.001.007-.001.01 0 2.436.82 4.384 2.588 5.161 5.01 1.396 4.368-1.53 9.208-6.537 10.81"/><path fill="#e0dcce" d="m32.47 74.79h3.755c0 0 2.66-.625 2.66 2.125v1.375c0 0 0 .172 1.25.417v2.491c0 0 1.25 1.547 2.5 1.111v-2.861c0 .186 1.25.367 2.5.521v2.816c0 0 1.25 1.071 3.75.595v-3.03c0 .027 1.25.043 1.25.048v-8.422l-.085-.022-3.766 1.393-2.186-1.695c0 0-1.816-1.544 2.481-3.315.202-.083 1.634-7.213 1.634-7.213l1.838 1.385.084-.045v-45.976c-15 .012-27.425 12.284-27.425 27.421 0 5.177 1.423 10.02 3.916 14.15l-1.667 6.292 2.75 7.359c.001 0 .742 3.076 4.761 3.076m-4.04-20.661c.777-2.428 2.727-4.197 5.165-5.02l12.428 4.971c.919 1.819 1.169 3.881.54 5.847-1.398 4.367-6.59 6.609-11.597 5.01-5.01-1.602-7.933-6.442-6.536-10.809"/><path fill="#d1cbb8" d="m34.656 32.777c-.332 1.101-.496 2.255-.496 3.445 0 7.57 7.226 13.707 15.976 13.707v-6.891c-7.501 0-13.7-4.359-15.48-10.261"/><path fill="#b7b19e" d="m65.56 32.777c-1.78 5.902-7.93 10.261-15.43 10.261v6.891c8.75 0 15.951-6.137 15.951-13.707 0-1.19-.189-2.345-.521-3.445"/></svg>