<svg xmlns="http://www.w3.org/2000/svg" viewBox="0 0 100 100" enable-background="new 0 0 100 100"><circle fill="#4f1c4e" cx="49.999" cy="50" r="49.999"/><path fill="#411742" d="m.005 50.2c.049 12.73 4.927 25.447 14.64 35.16 9.713 9.715 22.429 14.592 35.16 14.641l25.09-25.1-49.798-49.801-25.1 25.1"/><path fill="#46b938" d="m25.1 25.1h49.799v49.801h-49.799z"/><path fill="#46913e" d="m50 50h24.898v24.901h-24.898z"/><path fill="#74cb63" d="m25 25.1h24.901v24.9h-24.901z"/><path fill="#5ab149" d="m25 50.1h24.901v24.901h-24.901z"/><path d="m45.02 35.06h-4.98-4.98v4.98 4.98h4.98 4.98v-4.98z"/><path d="m59.959 35.06h-4.98v4.98 4.98h4.98 4.98v-4.98-4.98z"/><path d="m45.02 45.02v4.98h-4.98v4.98 4.978 4.982h4.98v-4.982h4.98 4.979v4.982h4.98v-4.982-4.978-4.98h-4.98v-4.98h-4.979z"/></svg>