<svg xmlns="http://www.w3.org/2000/svg" viewBox="0 0 100 100" enable-background="new 0 0 100 100"><circle fill="#ed2121" cx="50" cy="50" r="50"/><path opacity=".7" fill="#ba1a1a" d="m76.888 51.3c0 0-4.25-5.125-4.75-6.102s-.976-6.998-.976-6.998v-10.525l-4.721-5.337-4.972 4.972.918-.13.75 2.271-1.125.015-8.547.116-9.979 9.979h-4.069l-2.196-.666 9.312-9.312-7.092-1.067-8.803-2.467-6.522-3.712-23.966 23.967c-1.033 14 3.789 28.351 14.495 39.06 10.705 10.705 25.06 15.526 39.06 14.494l22.18-22.18-2.337-8.212 10.129-10.129-6.788-8.03"/><path fill="#c1bcb8" d="m33.558 24.77v9.616l12.976-4.808z"/><path fill="#e5d8cc" d="m46.534 29.578l-12.976-4.807v4.807z"/><path fill="#c1bcb8" d="m33.558 34.982v9.615l12.976-4.808z"/><path fill="#e5d8cc" d="m46.534 39.789l-12.976-4.807v4.807z"/><path fill="#c1bcb8" d="m33.558 45.19v9.618l12.976-4.808z"/><path fill="#e5d8cc" d="m46.534 50l-12.976-4.81v4.81z"/><path fill="#c1bcb8" d="m33.558 55.4v9.62l12.976-4.81z"/><path fill="#e5d8cc" d="m46.534 60.21l-12.976-4.81v4.81z"/><path fill="#c1bcb8" d="m33.558 65.61v9.62l12.976-4.81z"/><path fill="#e5d8cc" d="m46.534 70.42l-12.976-4.81v4.81z"/><path fill="#c6b19d" d="m24.12 22.333h9.441v55.33h-9.441z"/><path fill="#59544f" d="m22.03 64.752c-1.146 0-2.083-.938-2.083-2.083v-25.338c0-1.146.938-2.083 2.083-2.083 1.146 0 2.083.938 2.083 2.083v25.338c0 1.146-.937 2.083-2.083 2.083"/><path fill="#443f3a" d="m17.866 60.02c-1.146 0-2.083-.938-2.083-2.083v-15.878c0-1.146.937-2.083 2.083-2.083 1.146 0 2.083.938 2.083 2.083v15.878c.001 1.146-.937 2.083-2.083 2.083"/><g opacity=".38" fill="#e52828"><path d="m44.13 49.11l-2.932-1.086c-1.549.931-3 2.467-2.4 4.843l7.735-2.866-2.403-.891"/><path d="m41.726 58.43l-.377-.14c-.492 1.056-.65 2.354.06 3.82l5.125-1.899-4.808-1.781"/><path d="m42.23 38.2c-.615.757-1.041 1.864-.539 3.389l4.842-1.794-4.303-1.595"/><path d="m41.726 68.64l-.488-.181c-.737.338-.849.93.787 1.962.603.38 1.142.733 1.633 1.065l2.875-1.065-4.807-1.781"/><path d="m39.713 27.05c-.451 1.52-.502 3.305.716 4.79l6.105-2.262-4.808-1.782-2.01-.746"/></g><path fill="#c1bcb8" d="m66.44 75.23v-9.62l-12.97 4.81z"/><path fill="#e5d8cc" d="m53.47 70.42l12.97 4.81v-4.81z"/><path fill="#c1bcb8" d="m66.44 65.02v-9.62l-12.97 4.81z"/><path fill="#e5d8cc" d="m53.47 60.21l12.97 4.81v-4.81z"/><path fill="#c1bcb8" d="m66.44 54.807v-9.617l-12.97 4.809z"/><path fill="#e5d8cc" d="m53.47 49.999l12.97 4.808v-4.808z"/><path fill="#c1bcb8" d="m66.44 44.596v-9.616l-12.97 4.808z"/><path fill="#e5d8cc" d="m53.47 39.788l12.97 4.808v-4.808z"/><path fill="#c1bcb8" d="m66.44 34.385v-9.616l-12.97 4.808z"/><path fill="#e5d8cc" d="m53.47 29.577l12.97 4.808v-4.808z"/><path fill="#c6b19d" d="m66.44 22.333h9.441v55.33h-9.441z"/><path fill="#59544f" d="m77.967 35.25c1.146 0 2.083.938 2.083 2.083v25.338c0 1.146-.938 2.083-2.083 2.083-1.146 0-2.083-.938-2.083-2.083v-25.338c0-1.146.937-2.083 2.083-2.083"/><path fill="#443f3a" d="m82.13 39.977c1.146 0 2.083.938 2.083 2.083v15.878c0 1.146-.938 2.083-2.083 2.083-1.146 0-2.083-.938-2.083-2.083v-15.877c-.001-1.146.937-2.084 2.083-2.084"/><g opacity=".38" fill="#e52828"><path d="m55.87 50.89l2.932 1.086c1.549-.931 3-2.467 2.399-4.843l-7.735 2.866 2.404.891"/><path d="m58.27 41.57l.377.14c.492-1.056.65-2.354-.06-3.82l-5.125 1.899 4.808 1.781"/><path d="m57.77 61.805c.615-.757 1.041-1.864.539-3.389l-4.842 1.794 4.303 1.595"/><path d="m58.27 31.358l.488.181c.737-.338.849-.93-.787-1.962-.603-.38-1.142-.733-1.633-1.065l-2.875 1.065 4.807 1.781"/><path d="m60.29 72.949c.451-1.519.502-3.305-.716-4.79l-6.105 2.262 4.808 1.782 2.01.746"/></g></svg>