<svg xmlns="http://www.w3.org/2000/svg" viewBox="0 0 100 100" enable-background="new 0 0 100 100"><circle fill="#ed2121" cx="50.06" cy="50" r="50"/><path fill="#ba1a1a" d="m66.06 54.22l12.646-12.647-2.01-1.259-3.261 1.291-6.522-.371-4.348-2.926-4.431-2.339-37.587-17.222-18.954 18.953c-.996 3.937-1.53 8.06-1.53 12.304 0 27.614 22.385 49.999 50 49.999 4.681 0 9.207-.657 13.504-1.86l17.935-17.935-4.472-9.542-10.968-16.446"/><path fill="#969284" d="m70.02 39.811c0 0 3.472 1.938 6.389-.359l2.703 1.044-.414 1.074-1.283-.495c0 0-3.786 3.514-6.853 2.489-3.068-1.026-.714-3.819-.714-3.819"/><path fill="#b2afa1" d="m71.23 53.694c1.322-3.63-1.981-5.384-1.981-5.384 5.77-7.724-1.385-13.12-1.385-13.12l-17.39-6.716-2.402.904-27.52-10.673-2.918 7.553 21.07 8.14-2.475 6.408 7.42 2.868-1.15 2.979c0 0 2.414 1.474 5.643 3.452l-3.233 4.938c-.9 1.375-.515 3.22.86 4.121l8.254 5.402c1.375.9 3.22.515 4.121-.86l3.472-5.303c1.737 1.082 2.864 1.798 2.867 1.835.016.165 3.077-7.968 3.077-7.968l3.672 1.419m-12.878 3.543l-2.209 3.376c-.518.79-1.576 1.01-2.366.494l-4.737-3.101c-.789-.517-1.01-1.576-.494-2.366l2.209-3.376c.091-.137.201-.251.32-.353 2.523 1.547 5.222 3.207 7.533 4.635-.034.239-.115.475-.256.691"/><path fill="#8e572e" d="m64.974 81.29c5.723-.308 16.522-1.086 16.522-1.086 2.961-18.996-.886-23.785-10.05-29.06l-4.489-1.733-3.753 9.716-.084.217c0 0 10.822 6.481 1.858 21.942"/><path transform="matrix(.9327.3605-.3605.9327 16.851-12.216)" fill="#969284" d="m37.19 35.641h7.955v6.833h-7.955z"/><path fill="#5e5e5e" d="m63.12 59.35l-.01-.01z"/><path fill="#969284" d="m58.6 56.57c-.036.23-.115.458-.25.666l-2.209 3.376c-.518.79-1.576 1.01-2.366.494l-4.737-3.101c-.789-.517-1.01-1.576-.494-2.366l2.209-3.376c.085-.13.191-.239.302-.336l-2.928-1.803-3.223 4.924c-.9 1.375-.515 3.22.86 4.121l8.254 5.402c1.375.9 3.22.515 4.121-.86l3.464-5.292-3-1.849"/><g fill="#ceccc0"><path transform="matrix(.9328.3604-.3604.9328 11.665-10.297)" d="m18.746 23.89h29.39v4.475h-29.39z"/><path transform="matrix(.9329.3603-.3603.9329 17.888-17.14)" d="m47.743 32.527h14.372v13.778h-14.372z"/><path d="m65.22 35.965l-4.977 12.887c3.559 1.374 7.557-.396 8.932-3.955 1.374-3.558-.397-7.557-3.955-8.932"/></g><path fill="#a86f3d" d="m71.44 51.15l-4.489-1.733-1.634 4.231c3.922 1.861 14.937 8.901 8.239 27.11 4.226-.283 7.939-.551 7.939-.551 2.961-18.997-.886-23.785-10.06-29.06"/><path transform="matrix(.9328.3603-.3603.9328 16.438-18.04)" fill="#fff" d="m49.42 32.839h14.372v4.475h-14.372z"/></svg>