<svg xmlns="http://www.w3.org/2000/svg" viewBox="0 0 100 100" enable-background="new 0 0 100 100"><circle fill="#ed2121" cx="50" cy="50" r="50"/><path opacity=".7" fill="#ba1a1a" d="m28.945 30.11l-28.334 28.334c3.944 23.18 23.841 40.921 48.01 41.526l36.32-36.32-55.987-33.543"/><path fill="#8e8b59" d="m19.597 60.01l2.754-19.268c0 0 2.268-12.795 18.15-16.11 0 0 34.996-10.09 38.4 16.558l1.944 21.07c0 0-13.771 12.04-36.13 0l-4.537-1.806-20.575-.451"/><path opacity=".6" fill="#706b40" d="m80.84 62.22l-1.94-21.03c-2.292-17.95-18.914-19.226-29.524-18.15 11.363 2.688 11.702 14.35 11.702 14.35s1.944 28.839 1.621 29.973l18.14-5.147"/><path fill="#a5a472" d="m65.33 69.76c-11.64.001-20.646-5.757-23.22-7.757h-24.11v-5h25.814l.678.569c.73.609 18.2 14.835 37.766 1.937l2.675 4.093c-6.887 4.54-13.6 6.158-19.608 6.158"/><path fill="#f2eedd" d="m72.32 51.03c-.162-3.376-3.692-4.669-5.804-6.752-1.529-1.507-2.859-3.3-3.751-5.26-.067-.147.085-.295.028-.447 0 0 .211.008.211.021 0-.01 0-.016 0-.016 0 .152-.345.299-.412.447-.892 1.96-2.333 3.753-3.861 5.26-2.112 2.083-5.698 3.376-5.859 6.752-.087 1.811.792 3.599 2.415 4.457.949.501 2.029.64 3.088.539.674-.064 1.421-.225 2.062-.443.071-.024.567-.085.567-.166v4.577h4v-4.601c0 .091.089.159.165.185.641.218 1.118.378 1.792.443 1.059.101 2.06-.037 3.01-.539 1.623-.857 2.437-2.646 2.35-4.457"/></svg>