<svg xmlns="http://www.w3.org/2000/svg" viewBox="0 0 100 100" enable-background="new 0 0 100 100"><circle cx="50" cy="50" r="50" fill="#518ebc"/><path d="m73.5 26.2l-4.5.1-10.7 10.8-25.2-5.1-11 11c0 0-2-9.8-1.1-9.9.8-.1 6-7.3 6-7.3l-.6-3.6c0 0-17.8 18.7-26.3 26.9 0 .3 0 .7 0 1 0 27.3 21.9 49.5 49 50 .2-.2.4-.4.5-.5.7-.7 24.8-24.8 24.8-24.8l-.1-3.8 6.2-6.2 3.3-17-3.3-14.2-7-7.4" fill="#417ca5"/><path fill="#998c8c" d="m25.9 41.9h48.2v5.6h-48.2z"/><path d="m67.7 63.8c0 1.5-1.3 2.8-2.8 2.8h-29.8c-1.5 0-2.8-1.3-2.8-2.8v-29.9c0-1.5 1.3-2.8 2.8-2.8h29.8c1.5 0 2.8 1.3 2.8 2.8v29.9" fill="#23282b"/><path d="m66.9 65.8c.5-.5.8-1.2.8-2v-29.9c0-1.5-1.3-2.8-2.8-2.8h-29.8c-.8 0-1.5.3-2 .8l33.8 33.9" fill="#333b3f"/><path d="m73.6 62.1l-4.5 6c-1.8 2.2-5.3 1.9-5.3 1.9h-2-23.7-2c0 0-3.6.3-5.3-1.9l-4.5-6-6.8 4 4.9 6.9c0 0 2.6 4.8 8.8 4.9h4.9 23.7 4.9c6.2-.1 8.8-4.9 8.8-4.9l4.9-6.9-6.8-4" fill="#23282b"/><path d="m15.1 47.7c0 6.1 1.6 11.9 4.4 16.9l5.3-3.2c-1.6-2.9-2.7-6.2-3.2-9.6-.4-3.4 1.6-3.4 1.6-3.4h1.8 3.8v-7.2h-4.6c-2.5 0-.6-4.8-.1-5.9 1.7-3.4 4-6.5 6.8-9l-4.6-4.2c-6.9 6.4-11.2 15.5-11.2 25.6" fill="#333b3f"/><path d="m73.7 22.1l-4.6 4.2c2.8 2.5 5.2 5.6 6.8 9.1.5 1.2 2.3 5.9-.1 5.9h-4.6v7.2h3.8 1.8c0 0 2 .1 1.6 3.4-.5 3.5-1.6 6.7-3.2 9.7l5.3 3.2c2.8-5 4.4-10.8 4.4-16.9 0-10.3-4.3-19.4-11.2-25.8" fill="#23282b"/><path d="m73.7 22.1l-2.2 2c6.4 5.8 10.4 14.2 10.4 23.5 0 5.6-1.4 10.8-3.9 15.4l2.6 1.6c2.8-5 4.4-10.8 4.4-16.9-.1-10.1-4.4-19.2-11.3-25.6" fill="#333b3f"/><path d="m18.2 47.7c0-9.3 4-17.7 10.4-23.5l-2.2-2c-6.9 6.4-11.2 15.5-11.2 25.6 0 6.1 1.6 11.9 4.4 16.9l2.6-1.6c-2.6-4.6-4-9.8-4-15.4" fill="#23282b"/><path fill="#0d1011" d="m41.7 36.1h16.5v11.6h-16.5z"/><circle cx="61" cy="38.3" r="1.5" fill="#5babc1"/><circle cx="64.3" cy="35.2" r="1.5" fill="#ef78c2"/><circle cx="39" cy="38.3" r="1.5" fill="#ea9e59"/><g fill="#e24040"><circle cx="35.7" cy="35.2" r="1.5"/><path d="m39 50c-1.5 0-2.7 1.2-2.7 2.7 0 1.5 1.2 2.7 2.7 2.7 1.5 0 2.7-1.2 2.7-2.7 0-1.5-1.2-2.7-2.7-2.7m0 4.7c-1.1 0-2-.9-2-2 0-1.1.9-2 2-2 1.1 0 2 .9 2 2 0 1.1-.9 2-2 2"/><circle cx="39" cy="52.7" r="1.4"/></g><path d="m39.5 52.9c0 .3-.2.5-.5.5-.3 0-.5-.2-.5-.5v-1.3c0-.3.2-.5.5-.5.3 0 .5.2.5.5v1.3" fill="#ddd3d3"/><g fill="#5babc1"><path d="m37.1 57.1c-1.1 1.1-1.1 2.8 0 3.8 1.1 1.1 2.8 1.1 3.8 0 1.1-1.1 1.1-2.8 0-3.8-1-1-2.7-1-3.8 0m3.3 3.3c-.8.8-2 .8-2.8 0-.8-.8-.8-2 0-2.8.8-.8 2-.8 2.8 0 .8.8.8 2 0 2.8"/><circle cx="39" cy="59" r="1.4"/></g><path d="m39.4 58.8c.2.2.2.5 0 .7-.2.2-.5.2-.7 0l-.9-.9c-.2-.2-.2-.5 0-.7.2-.2.5-.2.7 0l.9.9" fill="#ddd3d3"/><g fill="#aed656"><path d="m63.7 59c0-1.5-1.2-2.7-2.7-2.7-1.5 0-2.7 1.2-2.7 2.7 0 1.5 1.2 2.7 2.7 2.7 1.5 0 2.7-1.2 2.7-2.7m-4.7 0c0-1.1.9-2 2-2 1.1 0 2 .9 2 2 0 1.1-.9 2-2 2-1.1 0-2-.9-2-2"/><circle cx="61" cy="59" r="1.4"/></g><path d="m60.9 59.5c-.3 0-.5-.2-.5-.5 0-.3.2-.5.5-.5h1.3c.3 0 .5.2.5.5 0 .3-.2.5-.5.5h-1.3" fill="#ddd3d3"/><g fill="#ea9e59"><path d="m62.9 50.8c-1.1-1.1-2.8-1.1-3.8 0-1.1 1.1-1.1 2.8 0 3.8 1.1 1.1 2.8 1.1 3.8 0 1.1-1.1 1.1-2.8 0-3.8m-3.3 3.3c-.8-.8-.8-2 0-2.8.8-.8 2-.8 2.8 0 .8.8.8 2 0 2.8-.8.7-2 .7-2.8 0"/><circle cx="61" cy="52.7" r="1.4"/></g><path d="m61.3 53.1c-.2.2-.5.2-.7 0-.2-.2-.2-.5 0-.7l.9-.9c.2-.2.5-.2.7 0 .2.2.2.5 0 .7l-.9.9" fill="#ddd3d3"/><circle cx="50" cy="52.8" r="3.7" fill="#0d1011"/><circle cx="50" cy="61.3" r="3.7" fill="#ddd3d3"/><g fill="#bcafaf"><circle cx="50" cy="61.3" r="2.2"/><circle cx="44.3" cy="49.7" r="1.2"/><circle cx="55.7" cy="49.7" r="1.2"/></g><g fill="#e24040"><circle cx="48.3" cy="46" r=".6"/><circle cx="50" cy="46" r=".6"/><circle cx="51.7" cy="46" r=".6"/><path d="m45 40.7c0 0 .2.2.5.5v1.6c0 0-.2.2-.5.5 0 0-.1-.1-.2-.2v-2.2c0 0 .1-.1.2-.2m.3-2.9h2.2c0 0 .1.1.2.2 0 0-.2.2-.5.5h-1.6c0 0-.2-.2-.5-.5 0 0 .1-.1.2-.2m.2 2.5h1.9c0 0 .1.1.3.3 0 0-.1.1-.3.3h-1.9c0 0-.1-.1-.3-.3-.1 0 0-.1.3-.3m.1 2.5h1.6c0 0 .2.2.5.5 0 0-.1.1-.2.2h-2.2c0 0-.1-.1-.2-.2 0 0 .2-.2.5-.5m2.2-4.8c0 0 .1.1.2.2v2.2c0 0-.1.1-.2.2 0 0-.2-.2-.5-.5v-1.6c.1 0 .2-.2.5-.5"/><path d="m48.6 38c0 0 .2.2.5.5v1.6c0 0-.2.2-.5.5 0 0-.1-.1-.2-.2v-2.2c0-.1.1-.1.2-.2m.6 4.8h1.6c0 0 .2.2.5.5 0 0-.1.1-.2.2h-2.2c0 0-.1-.1-.2-.2 0 0 .2-.2.5-.5m-.3-5h2.2c0 0 .1.1.2.2 0 0-.2.2-.5.5h-1.6c0 0-.2-.2-.5-.5 0 0 .1-.1.2-.2m.1 2.5h1.9c0 0 .1.1.3.3 0 0-.1.1-.3.3h-1.9c0 0-.1-.1-.3-.3 0 0 .1-.1.3-.3m2.4.4c0 0 .1.1.2.2v2.2c0 0-.1.1-.2.2 0 0-.2-.2-.5-.5v-1.6c.1 0 .2-.2.5-.5"/><path d="m52.2 38c0 0 .2.2.5.5v1.6c0 0-.2.2-.5.5 0 0-.1-.1-.2-.2v-2.2c0-.1 0-.1.2-.2m.6 4.8h1.6c0 0 .2.2.5.5 0 0-.1.1-.2.2h-2.2c0 0-.1-.1-.2-.2 0 0 .2-.2.5-.5m-.3-5h2.2c0 0 .1.1.2.2 0 0-.2.2-.5.5h-1.6c0 0-.2-.2-.5-.5 0 0 .1-.1.2-.2m.1 2.5h1.9c0 0 .1.1.3.3 0 0-.1.1-.3.3h-1.9c0 0-.1-.1-.3-.3 0 0 .1-.1.3-.3m2.4.4c0 0 .1.1.2.2v2.2c0 0-.1.1-.2.2 0 0-.2-.2-.5-.5v-1.6c0 0 .2-.2.5-.5"/></g></svg>