<svg enable-background="new 0 0 100 100" viewBox="0 0 100 100" xmlns="http://www.w3.org/2000/svg"><path d="m60.1 18.7h-20.2v-15.2h20.3v15.2z" fill="#6c6c6c"/><path d="m88.2 55.6c0 21.1-17.1 38.2-38.2 38.2s-38.2-17.1-38.2-38.2 17.1-38.2 38.2-38.2 38.2 17.1 38.2 38.2z" fill="#3b2e3a"/><path d="m50 18.1c20.6 0 37.4 16.8 37.4 37.4 0 20.7-16.8 37.5-37.4 37.5s-37.4-16.8-37.4-37.4c0-20.7 16.8-37.5 37.4-37.5m0-7c-24.5 0-44.4 19.9-44.4 44.5 0 24.5 19.9 44.4 44.4 44.4s44.4-19.9 44.4-44.4c0-24.6-19.9-44.5-44.4-44.5z" fill="#dddddc"/><path d="m70.6 51.2h-16.2v-16.3c0-2.4-2-4.4-4.4-4.4s-4.4 2-4.4 4.4v16.2h-16.2c-2.4 0-4.4 2-4.4 4.4s2 4.4 4.4 4.4h16.2v16.2c0 2.4 2 4.4 4.4 4.4s4.4-2 4.4-4.4v-16.2h16.2c2.4 0 4.4-2 4.4-4.4s-2-4.3-4.4-4.3z" fill="#fff"/><path d="m30 3.5c0 1.9 1.6 3.5 3.5 3.5h33c1.9 0 3.5-1.6 3.5-3.5 0-1.9-1.6-3.5-3.5-3.5h-33c-1.9 0-3.5 1.6-3.5 3.5z" fill="#dddddc"/></svg>