<svg xmlns="http://www.w3.org/2000/svg" viewBox="0 0 100 100" enable-background="new 0 0 100 100"><circle cx="50" cy="50" r="50" fill="#561f52"/><path d="m56.4 42.9l-34.3-11.5-22 22c.8 11.7 5.6 23.1 14.5 32 11.4 11.3 26.7 16 41.5 14.2l27.7-27.7-8.1-17.3-19.3-11.7" opacity=".5" fill="#3b163c"/><g fill="#a7bfc4"><circle cx="31" cy="41.9" r="13.8"/><path d="m17.2 41.9l-2.3 26c0 0-.7 5.5 6.1 6.1 0 0 4.1.9 6.8-4.3l9.2-18.6"/><circle cx="69" cy="41.9" r="13.8"/><path d="m82.8 41.9l2.3 26c0 0 .7 5.5-6.1 6.1 0 0-4.1.9-6.8-4.3l-9.2-18.6"/><path d="m31 28.1h38.1v27.5h-38.1z"/></g><g fill="#c5dadd"><circle cx="30.9" cy="41.6" r="11.5"/><circle cx="69.1" cy="41.6" r="11.5"/></g><g fill="#2e4443"><path d="m28.9 34.7h4v12.6h-4z"/><path d="m24.6 39h12.6v4h-12.6z"/><path d="m54.2 50.8c0 .8-.7 1.5-1.5 1.5h-6.4c-.8 0-1.5-.7-1.5-1.5 0-.8.7-1.5 1.5-1.5h6.4c.8 0 1.5.7 1.5 1.5"/></g><circle cx="69.1" cy="36.2" r="2.4" fill="#f2bb40"/><circle cx="69.1" cy="47.1" r="2.4" fill="#2a9b4d"/><circle cx="74.6" cy="41.6" r="2.4" fill="#f44d4d"/><circle cx="63.7" cy="41.6" r="2.4" fill="#41bcbf"/></svg>