<svg xmlns="http://www.w3.org/2000/svg" viewBox="0 0 100 100" enable-background="new 0 0 100 100"><circle fill="#ed2121" cx="50" cy="50" r="50"/><path opacity=".7" fill="#ba1a1a" d="m1.258 61.63c2.071 8.693 6.492 16.942 13.275 23.724 6.836 6.836 15.16 11.269 23.928 13.319l46.737-46.737-69.06-5.184-14.878 14.878"/><g fill="#db8e67"><path d="m56.18 22.619l24.49 24.49-15.297 16.871-11.784-.19c0 0-7.901.181-8.137-.686-.236-.867-12.379-15.665-12.379-15.665l1.074-5.01 6.577-7.828"/><path d="m69.36 64.09l-21.978-21.979c0 0-7.634-2.922-7.871-2.685-.236.236-9.253 6.574-9.253 6.574s-4.449 7.915-3.976 8.545c.118.158.526 1.57 1.069 3.598l1.606 2.078 2.832 14.03 9.323 9.323c0 0 6.118 6.336 15.434-2.98l15.174-15.174-2.36-1.326"/></g><g fill="#f7b797"><path d="m51.35 15.07l-17.27 17.271 8.839 8.839 17.27-17.27c-2.323-6.517-8.839-8.84-8.839-8.84"/><path d="m70.871 34.445l-15.575 15.574 7.07 7.07 15.575-15.575c-1.601-5.47-7.07-7.07-7.07-7.07"/><path d="m77.24 43.983l-13.992 13.991 7.955 7.955 13.992-13.992c-1.762-5.309-7.955-7.954-7.955-7.954"/><path d="m63.61 24.02l-17.16 17.16 7.955 7.955 17.16-17.16c-1.439-5.632-7.955-7.954-7.955-7.954"/></g><path fill="#ffcab3" d="m35.959 48.14l2.543-2.543 1.199 1.199c7.142 1.839 12.278-.304 12.278-.304l1.497-5.424-19.379-12.279-17.961 17.961 15.656 27.491 9.362 9.363 10.487-10.487c9.06-9.06-15.682-24.977-15.682-24.977"/></svg>