<svg xmlns="http://www.w3.org/2000/svg" viewBox="0 0 100 100" enable-background="new 0 0 100 100"><circle fill="#9b8b48" cx="50" cy="50.16" r="50"/><path fill="#897a3b" d="m56.09 25.369c-.432-.172-9.828-11.477-9.828-11.477l-7.61 7.61c0 0 3.462 4.218 6.563 8.125h-.002l-6.514 6.1-8.7-8.812-1.765 2.33 3.212-7.239-31.33 31.33c.742 11.717 5.577 23.23 14.532 32.18 8.04 8.03 18.13 12.756 28.582 14.178l19.61-19.611-4.387-15.294 10.146-3.662 13.445-13.444-29.06-16.207c1.652-2.87 3.332-6.02 3.107-6.107"/><path fill="#e0dad1" d="m78.39 45.674c0 19.82-12.708 38.93-28.384 38.93s-28.384-19.11-28.384-38.93c0-19.818 12.708-29.799 28.384-29.799s28.384 9.98 28.384 29.799"/><path fill="#fcf9f5" d="m78.39 45.674c0-19.818-12.708-29.799-28.384-29.799v68.73c15.676 0 28.384-19.11 28.384-38.93"/><g fill="#3f4349"><circle cx="37.37" cy="49.22" r="5.929"/><circle cx="62.63" cy="49.22" r="5.929"/></g><path fill="#54483d" d="m46.26 13.892h7.484v7.485h-7.484z"/><path fill="#705b4a" d="m50 13.892h3.743v7.485h-3.743z"/><path fill="#e0dad1" d="m54.79 63.32c0 .85-1.692 1.537-3.781 1.537h-2.02c-2.088 0-3.782-.688-3.782-1.537v-5.549c0-.85 1.694-1.535 3.782-1.535h2.02c2.089 0 3.781.686 3.781 1.535v5.549"/><path fill="#54483d" d="m17.959 40.2h7.484v7.484h-7.484z"/><path fill="#705b4a" d="m74.56 40.2h7.484v7.484h-7.484z"/><g fill="#3f4349"><ellipse cx="50" cy="61.03" rx="2.332" ry="1.772"/><circle cx="43.915" cy="66.56" r="1.702"/><circle cx="43.915" cy="72.64" r="1.702"/><circle cx="43.915" cy="78.73" r="1.702"/><circle cx="56.09" cy="66.56" r="1.702"/><circle cx="56.09" cy="72.64" r="1.702"/><circle cx="56.09" cy="78.73" r="1.702"/></g><path fill="#fcf9f5" d="m54.79 54.3c0 1.068-1.692 1.938-3.781 1.938h-2.02c-2.088 0-3.782-.869-3.782-1.938v-6.992c0-1.07 1.694-1.936 3.782-1.936h2.02c2.089 0 3.781.866 3.781 1.936v6.992"/><g fill="#3f4349"><circle cx="44.14" cy="32.925" r="1.547"/><circle cx="37.606" cy="31.727" r="1.547"/><circle cx="37.606" cy="25.369" r="1.547"/><circle cx="55.864" cy="32.925" r="1.547"/><circle cx="62.4" cy="31.727" r="1.546"/><circle cx="62.4" cy="25.369" r="1.546"/></g><path fill="#af1731" d="M61.41 36.1 50.03 38.661 38.589 36.1 50.03 43.872z"/><path fill="#dc3449" d="m50 38.652v5.197l.03.023 11.38-7.772-11.38 2.561z"/><g fill="#af1731"><path d="m31.644 64.12l2.636 3.05 6.69-7.91z"/><path d="m68.36 64.12l-2.638 3.05-6.692-7.91z"/></g></svg>