<?xml version="1.0" encoding="utf-8"?>
<!-- Generator: Adobe Illustrator 24.0.0, SVG Export Plug-In . SVG Version: 6.00 Build 0)  -->
<svg version="1.1" id="Capa_1" xmlns="http://www.w3.org/2000/svg" xmlns:xlink="http://www.w3.org/1999/xlink" x="0px" y="0px"
	 viewBox="0 0 100 100" style="enable-background:new 0 0 100 100;" xml:space="preserve">
<style type="text/css">
	.st0{fill:#FAC763;}
	.st1{fill:#B02019;}
	.st2{fill:#FD2C2C;}
	.st3{fill:#FFFFFF;}
	.st4{fill:#FFFCF2;}
	.st5{fill:#D9E4EC;}
	.st6{fill:#394C6E;}
</style>
<g>
	<g>
		<g>
			<g>
				<polygon class="st0" points="10.7,92.1 18.7,92.2 31.2,79.8 20.2,68.8 7.7,81.2 				"/>
				<path id="XMLID_176_" class="st0" d="M18.7,92.2l-5.5,5.5c-3,3-8,3-11,0l0,0c-3-3-3-8,0-11l5.5-5.5L18.7,92.2z"/>
			</g>
			<g>
				<polygon class="st0" points="91.7,93.9 92.2,81.2 79.8,68.8 68.8,79.8 81.2,92.2 				"/>
				<path id="XMLID_174_" class="st0" d="M81.2,92.2l5.5,5.5c3,3,8,3,11,0l0,0c3-3,3-8,0-11l-5.5-5.5L81.2,92.2z"/>
			</g>
		</g>
		<g>
			<path id="XMLID_173_" class="st1" d="M16.2,7.2c2.4,1.8,5.2,4.1,7.9,6.9l11,11l-9.5,9.5l-11-11c-2.2-2.2-4.1-4.3-5.6-6.3
				C11.5,14.1,14,10.8,16.2,7.2z"/>
			<path id="XMLID_172_" class="st2" d="M28.6,9.4c1-1,1-2.6,0-3.5l-3.5-3.5c-3.4-3.4-9-3.2-12.7,0.4l-9.5,9.5
				c-3.6,3.6-3.8,9.3-0.4,12.7L6,28.5c1,1,2.6,1,3.5,0L28.6,9.4z"/>
		</g>
		<g>
			<path id="XMLID_171_" class="st1" d="M83.9,7.2c-2.4,1.8-5.2,4.1-7.9,6.9l-11,11l9.5,9.5l11-11c2.2-2.2,4.1-4.3,5.6-6.3
				C88.6,14.1,86.1,10.8,83.9,7.2z"/>
			<path id="XMLID_170_" class="st2" d="M71.5,9.4c-1-1-1-2.6,0-3.5L75,2.4c3.4-3.4,9-3.2,12.7,0.4l9.5,9.5
				c3.6,3.6,3.8,9.3,0.4,12.7l-3.5,3.5c-1,1-2.6,1-3.5,0L71.5,9.4z"/>
		</g>
	</g>
	<g>
		<g>
			<path class="st3" d="M85.8,54c0,19.8-16,35.8-35.8,35.8c-19.8,0-35.8-16-35.8-35.8c0-19.8,16-35.8,35.8-35.8
				C69.8,18.2,85.8,34.2,85.8,54z"/>
			<path class="st2" d="M50,18.9c19.4,0,35.1,15.8,35.1,35.1c0,19.4-15.8,35.1-35.1,35.1c-19.4,0-35.1-15.8-35.1-35.1
				C14.9,34.6,30.6,18.9,50,18.9 M50,12.3C27,12.3,8.3,31,8.3,54C8.3,77,27,95.7,50,95.7S91.7,77,91.7,54C91.7,31,73,12.3,50,12.3
				L50,12.3z"/>
		</g>
	</g>
	<g>
		<ellipse id="XMLID_165_" class="st4" cx="50" cy="54" rx="35.5" ry="35.6"/>
		<g>
			<path class="st5" d="M50,89.6c3.8,0,7.4-0.6,10.8-1.7L16.2,43.1c-1.1,3.4-1.7,7.1-1.7,10.9C14.5,73.6,30.4,89.6,50,89.6z"/>
			<path class="st5" d="M67.9,84.7c2.9-1.7,5.5-3.7,7.7-6.1L25.4,28.3c-2.4,2.3-4.4,4.9-6.1,7.7L67.9,84.7z"/>
		</g>
		<g>
			<ellipse id="XMLID_164_" class="st6" cx="50" cy="54" rx="5.9" ry="5.9"/>
			<path class="st6" d="M50,23.2L50,23.2c-1.2,0-2.1,0.9-2.1,2.1v28.3c0,1.2,0.9,2.1,2.1,2.1h0c1.2,0,2.1-0.9,2.1-2.1V25.3
				C52.1,24.2,51.2,23.2,50,23.2z"/>
			<path class="st6" d="M49.8,53.8L49.8,53.8c-0.8,0.8-0.8,2.2,0,3l12.4,12.4c0.8,0.8,2.2,0.8,3,0v0c0.8-0.8,0.8-2.2,0-3L52.8,53.8
				C52,53,50.6,53,49.8,53.8z"/>
		</g>
	</g>
</g>
</svg>
