<svg enable-background="new 0 0 100 100" viewBox="0 0 100 100" xmlns="http://www.w3.org/2000/svg"><circle cx="50" cy="50" fill="#fff" r="37"/><path d="m92.5 55.6c-2.6-3.2-2.6-7.9 0-11.1l4.1-5.1c2.4-2.9.9-7.2-2.7-8.2l-6.3-1.7c-4-1.1-6.8-4.8-6.5-9l.4-6.5c.2-3.7-3.5-6.4-7-5.1l-6.1 2.4c-3.9 1.5-8.3.1-10.6-3.4l-3.5-5.5c-2-3.1-6.6-3.1-8.6 0l-3.5 5.5c-2.3 3.5-6.7 4.9-10.6 3.4l-6.1-2.4c-3.5-1.3-7.2 1.3-7 5.1l.4 6.5c.2 4.2-2.5 7.9-6.5 9l-6.4 1.7c-3.6 1-5 5.3-2.7 8.2l4.1 5.1c2.6 3.2 2.6 7.9 0 11.1l-4.1 5.1c-2.3 2.8-.9 7.2 2.7 8.1l6.3 1.7c4 1.1 6.8 4.8 6.5 9l-.3 6.5c-.2 3.7 3.5 6.4 7 5.1l6.1-2.4c3.9-1.5 8.3-.1 10.6 3.4l3.5 5.5c2 3.1 6.6 3.1 8.6 0l3.5-5.5c2.3-3.5 6.7-4.9 10.6-3.4l6.1 2.4c3.5 1.3 7.2-1.3 7-5.1l-.4-6.5c-.2-4.2 2.5-7.9 6.5-9l6.3-1.7c3.6-1 5-5.3 2.7-8.2zm-23.6 11.5c0 3.4-2.7 6.1-6.1 6.1-2.1 0-4.1-1.1-5.2-2.9l-16.9-27.6v25.8c0 2.6-2.1 4.8-4.8 4.8-2.6 0-4.8-2.1-4.8-4.8v-35.6c0-3.4 2.7-6.1 6.1-6.1 2.1 0 4.1 1.1 5.2 2.9l16.9 27.7v-25.9c0-2.6 2.1-4.8 4.8-4.8 2.6 0 4.8 2.1 4.8 4.8z" fill="#6acce8"/></svg>