<svg xmlns="http://www.w3.org/2000/svg" viewBox="0 0 100 100" enable-background="new 0 0 100 100"><circle fill="#232c3a" cx="50" cy="50" r="50"/><path opacity=".7" fill="#131a26" d="m.066 52.52c.599 11.944 5.456 23.715 14.577 32.837 9.153 9.153 20.972 14.02 32.957 14.587l25.05-25.05-44.662-50.3-27.923 27.923"/><path fill="#566868" d="m62.28 41.14c0 11.672-9.468 21.13-21.14 21.13-11.673-.001-21.14-9.464-21.14-21.13 0-11.678 9.467-21.14 21.14-21.14 11.672 0 21.14 9.464 21.14 21.14"/><path fill="#475556" d="m58.44 41.14c0 9.557-7.746 17.302-17.303 17.302-9.556 0-17.31-7.745-17.31-17.302 0-9.562 7.754-17.307 17.31-17.307 9.557 0 17.303 7.745 17.303 17.307"/><path fill="#566868" d="m55.5 41.14c0 7.929-6.432 14.36-14.36 14.36-7.938 0-14.361-6.432-14.361-14.36 0-7.934 6.423-14.365 14.361-14.365 7.928-.001 14.36 6.431 14.36 14.365"/><g fill="#475556"><path d="m51.16 38.572l-5.321 3.07 1.471 6.418z"/><path d="m31.13 38.572l3.829 9.488 1.484-6.418z"/><path d="m41.14 32.786l6.17 15.274h-12.351z"/></g><path fill="#ff2c2c" d="m80 58.859c0 11.676-9.469 21.14-21.14 21.14-11.674 0-21.14-9.464-21.14-21.14 0-11.673 9.467-21.14 21.14-21.14 11.672.001 21.14 9.465 21.14 21.14"/><path fill="#ed2121" d="m76.17 58.859c0 9.561-7.755 17.306-17.312 17.306-9.556 0-17.302-7.745-17.302-17.306 0-9.557 7.746-17.302 17.302-17.302 9.557.001 17.312 7.746 17.312 17.302"/><path fill="#ff2c2c" d="m73.22 58.859c0 7.934-6.424 14.365-14.361 14.365-7.929 0-14.36-6.432-14.36-14.365 0-7.929 6.432-14.361 14.36-14.361 7.937.001 14.361 6.433 14.361 14.361"/><g fill="#f8ebda"><path d="m68.876 56.3l-5.316 3.06 1.48 6.424z"/><path d="m48.843 56.3l3.843 9.486 1.474-6.426z"/><path d="m58.859 50.51l6.181 15.276h-12.354z"/></g></svg>