<svg enable-background="new 0 0 100 100" viewBox="0 0 100 100" xmlns="http://www.w3.org/2000/svg"><path d="m63.2 82.1h-36.4l9.9-56.7h36.5z" fill="#d7031d"/><path d="m40.8 71.9-14 10.2 5.6-32.1z" fill="#9c001d"/><path d="m58.3 53.7 4.9 28.4 5.6-32.1z" fill="#9c001d"/><path d="m40.8 71.9h-27.8l11-62.6h23.9c2.2 0 3.6 1.8 3.2 3.9z" fill="#fd2c2c"/><path d="m97.9 9.3h-27.9c-2.2 0-4.2 1.8-4.6 3.9l-7.1 40.5h31.8c2.1 0 3.6-2.4 2.6-4l-12-18.2 18.4-18.2c1.6-1.6.9-4-1.2-4z" fill="#fd2c2c"/><path d="m3.9 100c-2.6 0-4.3-2.1-3.8-4.7l15.9-90.6c.5-2.6 2.9-4.7 5.5-4.7 2.6 0 4.3 2.1 3.8 4.7l-16 90.6c-.4 2.6-2.8 4.7-5.4 4.7z" fill="#687696"/></svg>