<svg xmlns="http://www.w3.org/2000/svg" viewBox="0 0 100 100" enable-background="new 0 0 100 100"><circle fill="#368e36" cx="50" cy="50" r="50"/><path fill="#247c24" d="m74.997 38.507l-6.316-.224-6.371-5.714-.264-7.01-18.646 18.647-9.219-9.324-12.87-12.766-20.802 20.802c-.329 2.315-.509 4.679-.509 7.085 0 27.614 22.386 49.999 50 49.999 2.69 0 5.328-.219 7.902-.628l20.333-20.334-21.894-21.874 18.656-18.657"/><g fill="#ffb3b3"><path d="m37.46 42.05l27.1 29.31c0 0 10.122 11.227 13.675 7.674l-38.881-38.881-1.895 1.895"/><path d="m41.25 38.26l29.31 27.1c0 0 11.227 10.122 7.674 13.675l-38.881-38.88 1.895-1.896"/><ellipse transform="matrix(.7071-.7071.7071.7071-13.316 31.01)" cx="30.775" cy="31.579" rx="9.158" ry="13.385"/></g><g fill="#8ff6f9"><path d="m58.52 38.28l-29.31 27.1c0 0-11.227 10.122-7.674 13.675l38.881-38.881-1.895-1.895"/><path d="m62.31 42.07l-27.1 29.31c0 0-10.122 11.227-13.675 7.674l38.881-38.881 1.895 1.896"/><path d="m83.65 27.326l-.75-.75-10.162 10.161c-.275.275-.725.275-1 0l-.749-.749c-.275-.275-.275-.725 0-1l9.846-10.477-1.206-1.206-10.477 9.846c-.275.275-.725.275-1 0l-.749-.749c-.275-.275-.275-.725 0-1l9.846-10.477-1.205-1.205-10.477 9.846c-.275.275-.725.275-1 0l-.749-.749c-.275-.275-.275-.725 0-1l10.161-10.162-.75-.75-11.181 8.654.008.008c-4.855 5.178-6.02 12.01-2.544 15.479 3.472 3.472 10.3 2.311 15.479-2.544l.008.008 8.651-11.184"/></g></svg>