<svg xmlns="http://www.w3.org/2000/svg" viewBox="0 0 100 100" enable-background="new 0 0 100 100"><circle fill="#368e36" cx="50" cy="50" r="50"/><path fill="#247c24" d="m63.776 19.02l-14.05 14.05-15.826-5.188-18.573 18.573-4.04-1.037-10.88 10.88c2.562 20.375 17.37 36.933 36.832 42.05l35.623-35.623-10.959-12.319 16.63-16.629-14.759-14.759"/><path fill="#fc4949" d="m23.844 62.833l-7.371-7.371c0 0-4.698-5.346-5.184-10.04 0 0 8.1-1.944 13.285 3.402l8.667 8.667"/><path fill="#e22b2b" d="m23.336 62.33l2.829-4.543-8.219-8.219c0 0-3.752-3.428-6.657-4.146.486 4.698 5.184 10.04 5.184 10.04l6.863 6.864"/><path transform="matrix(.7071-.7071.7071.7071-38.04 47.12)" fill="#dba756" d="m31.25 52.936h13.232v33.09h-13.232z"/><path fill="#c1873a" d="M37.864 69.48 26.16 57.782 21.486 62.46 33.837 74.81z"/><path transform="matrix(.7071-.7071.7071.7071-39.8 51.37)" fill="#444" d="m33.662 63.19h16.897v21.08h-16.897z"/><path transform="matrix(.7071-.7071.7071.7071-42.787 50.13)" fill="#303030" d="m34.899 66.18h8.449v21.08h-8.449z"/><circle fill="#444" cx="40.903" cy="35.747" r="10.539"/><circle fill="#ffb3b3" cx="40.903" cy="35.747" r="6.69"/><circle fill="#444" cx="70.17" cy="27.385" r="10.539"/><circle fill="#8ff6f9" cx="70.17" cy="27.385" r="6.69"/><circle fill="#444" cx="64.5" cy="56.33" r="10.539"/><circle fill="#a742bc" cx="64.5" cy="56.33" r="6.69"/></svg>