<svg xmlns="http://www.w3.org/2000/svg" viewBox="0 0 100 100" enable-background="new 0 0 100 100"><circle fill="#9b8b48" cx="50" cy="50.16" r="50"/><path fill="#897a3b" d="m74.74 56.974l2.167-13.31c0 0-6.5-11.204-7-11.752s-11.309-9.05-11.309-9.05l-7.604 7.603-7.632-6.964-11.906 11.907-8.382 2.284c0 0-1.01 1.512-2.358 3.558l.104-2.417-20.05 20.05c1.72 9.754 6.334 19.1 13.869 26.634 11.246 11.244 26.514 15.999 41.17 14.292l22.02-22.02-10.662-2.323 7.569-18.492"/><g fill="#fff" fill-rule="evenodd"><path d="m42.832 62.841c-3.754-2.099-7.44-4.151-11.12-6.221-2.245-1.263-2.993-2.95-2.353-5.454.227-.892.569-1.774.99-2.593 1.604-3.115 3.263-6.202 4.9-9.299.109-.208.206-.423.336-.692-1.522-.294-2.99-.597-4.467-.843-.188-.031-.459.195-.633.362-1.734 1.674-3.45 3.368-5.184 5.04-.918.887-2.01 1.17-3.231.759-1.193-.401-1.881-1.277-2.08-2.506-.159-.979.129-1.868.827-2.56 2.323-2.301 4.664-4.584 7.02-6.853.806-.775 1.815-.891 2.877-.69 2.975.564 5.949 1.127 8.922 1.694.257.05.534.082.757.204 2.882 1.559 6.03 2.647 8.514 4.914 1.109 1.012 2.301 1.934 3.471 2.878.188.152.455.29.688.293 1.812.024 3.625.015 5.531.015 0-6.146 0-12.262 0-18.425 6.455 0 12.816 0 19.234 0 0 18.297 0 36.589 0 54.923-6.39 0-12.752 0-19.16 0 0-8.146 0-16.27 0-24.434 2.049 0 4.066 0 6.18 0 0 1.248-.031 2.484.016 3.717.018.465.215.922.33 1.383.41-.244.889-.418 1.219-.742 2.266-2.223 4.501-4.477 6.745-6.723.167-.167.324-.342.517-.544-.088-.106-.151-.2-.23-.279-2.446-2.45-4.887-4.903-7.352-7.333-.225-.222-.605-.285-.914-.422-.109.321-.306.639-.314.963-.035 1.355-.015 2.712-.015 4.176-.318 0-.569 0-.819 0-3.986-.003-7.973-.017-11.959-.002-1.053.004-1.946-.291-2.752-.985-1.426-1.227-2.896-2.403-4.398-3.644-1.911 3.616-3.79 7.17-5.693 10.773.721.403 1.402.788 2.087 1.166 2.775 1.533 5.546 3.076 8.334 4.586.443.24.54.446.396.941-1.513 5.193-2.992 10.396-4.49 15.593-.437 1.515-1.621 2.421-3.084 2.403-1.413-.018-2.651-.941-2.947-2.359-.125-.6-.075-1.293.09-1.891.978-3.536 2.01-7.06 3.03-10.583.065-.226.12-.455.186-.709"/><path d="m27.626 56.974c1.245 1.959 3.327 2.58 5.081 3.759-.076.189-.143.385-.229.57-.854 1.836-1.725 3.664-2.558 5.51-.207.459-.45.674-.983.73-3.177.331-6.353.68-9.521 1.086-2.822.361-4.118-1.895-3.805-3.594.249-1.358 1.302-2.398 2.707-2.564 2.13-.254 4.262-.498 6.396-.715.503-.053.8-.219 1.013-.711.578-1.331 1.223-2.633 1.899-4.071"/><path d="m52.33 27.14c.01 2.905-2.307 5.25-5.196 5.259-2.89.009-5.264-2.338-5.265-5.207-.001-2.932 2.335-5.253 5.285-5.254 2.848 0 5.166 2.331 5.176 5.202"/></g></svg>