<svg xmlns="http://www.w3.org/2000/svg" viewBox="0 0 100 100" enable-background="new 0 0 100 100"><circle fill="#232c3a" cx="49.999" cy="50" r="50"/><path opacity=".7" fill="#131a26" d="m26.515 26.03l-26.453 26.451c.591 11.957 5.449 23.742 14.581 32.873 8.289 8.289 18.764 13.05 29.568 14.297l25.55-25.549-43.25-48.07"/><path fill="#e0c5a9" d="m70.63 72.26c-.184 1.687-1.699 2.905-3.384 2.72l-19.842-2.169c-1.688-.186-2.905-1.699-2.718-3.387l3.726-34.09c.184-1.687 1.7-2.904 3.386-2.72l19.841 2.168c1.687.185 2.904 1.703 2.719 3.387l-3.728 34.09"/><g fill="#3c8421"><path d="m61.35 45.565l1.032-.022.749.811c0 0 1.416-.728 1.364-2.324l1.863.891-2.876 1.848 1.375 1.888c0 0 2.696-1.704 2.735-2.659l1.456 1.172c0 0-3.172 1.977-3.686 1.965 0 0 1.061 3.08 5.199 4.324l-2.409.952-6.802-8.846"/><path d="m59.54 57.1c0 0 2.25-1.768 1.567-5.292l.714.081c0 0 .109.302.487.369.379.067 2.01-.541 2.01-.541l1.26.794c0 0-1.373 1.892-1.065 2.577.309.687 2.458.643 2.594 1.14.136.498-2.869 1.071-3.278-.205-.409-1.275 1.083-3.781-.758-3.292-1.842.49.025 2.943-3.535 4.369"/><path d="m59.868 58.42l.924.646c0 0 1.817-.591 2.237-.144.418.446-.521 1.89-.878 1.919-.355.03-2.835-1.286-2.835-1.286s2.229 1.875 2.174 2.15c-.056.275-3.327 1.992-3.719 1.925-.392-.068 3.325.496 4.667-1.183l3.066 2.839.397-.471c0 0-.358-1.592-2.538-3.272 0 0 2.02-2.26 1.549-2.876-.47-.618-.353-1.215-5.04-.247"/><path d="m59.25 54.57c0 0-.699-.755-.623-1.146.196-1.026 1.985-2 1.985-2s-.562-1.035-1.666-1.03c-1.102.005-2.216.058-2.216.058l-.18.147c1.42-1.367 2.909-3.208 4.281-5.683l-1.701-1.191-3.877.87 1.01.613 2.317-.077c0 0-1.243 2.849-2.323 3.801l-1.219-1.502-1.291-.174 1.881 2.602c0 0-3.521 3.036-5.561 4.586 0 0 2.842-.499 6.141-3.521l-.01.009c0 0 1.889.36 2.08.75.193.389-.156 2.291-1.342 2.34-1.186.048-2.182-.879-2.182-.879s-.633 3.706-1.982 4.732l.363.487c0 0 2.531-1.941 3.367-.771.837 1.172-.711 3.934-1.527 3.971-.818.039-2.201-.723-2.201-.723l1.906 3.077c0 0 1.383-.394 2.518-3.229 0 0 1.283-2.504.98-3.299-.303-.796-2.443-1.118-3.377-.988.001.001.28-2.329 4.453-1.827"/></g><path fill="#f8ebda" d="m53.39 64.742c0 1.803-1.461 3.266-3.267 3.266h-21.232c-1.803 0-3.266-1.463-3.266-3.266v-36.474c0-1.805 1.463-3.268 3.266-3.268h21.232c1.806 0 3.267 1.463 3.267 3.268v36.474"/><path fill="#b91d1c" d="m47.809 40.948c-3.582-2.785-6.631-1.326-6.631-1.326l.066-3.051h1.326l.796-.796-4.841-3.315-3.316 2.852 2.587.199c0 0 .463 4.841.065 5.503-.397.664-1.193 1.46-3.116 1.194-1.923-.265-2.719.464-2.719.464s1.243.751 1.459 2.188c.521 3.486 3.117 3.913 3.117 3.913.995-2.454 2.056-1.127 2.056-1.127s.266 15.916 1.327 15.916c1.062 0 1.194-15.916 1.194-15.916 2.918 2.122 3.514.066 4.376-.729.862-.796 1.592-2.653 2.188-3.183.597-.531 1.791 0 1.791 0l.464-.796-2.189-1.99m-10.212 5.107c-.916 0-2.454-.675-2.454-1.508 0-.834 1.538-1.907 2.454-1.907.916 0 .862 1.073.862 1.907-.001.832.053 1.508-.862 1.508m4.36 0c-1.182 0-.946-1.173-.946-2.619 0-1.447-.236-2.62.946-2.62 1.181 0 3.333-.021 3.333 1.426 0 1.446-2.152 3.813-3.333 3.813"/></svg>