<svg xmlns="http://www.w3.org/2000/svg" viewBox="0 0 100 100" enable-background="new 0 0 100 100"><circle fill="#9b8b48" cx="50" cy="50.16" r="50"/><g fill="#897a3b"><path d="m65.942 16.03l-14.12 14.12-.751-14.229 5.54-2.998z"/><path d="m59.19 51.873l-12.484-1.239 6.792-16.598v-24.22l-15.04 15.04-3.718-2.715-14.05 14.05 1.043-12.547-21.474 21.475c-1.453 14.42 3.339 29.35 14.386 40.4 13.08 13.08 31.594 17.382 48.27 12.942l19.999-19.998-13.494-12.98-10.223-13.606"/></g><path fill="#96a7bc" d="m34.738 22.14h31.81v29.489h-31.81z"/><path fill="#2e343a" d="m44.688 34.445h5.408v17.19h-5.408z"/><path fill="#4e5256" d="m34.738 51.631h31.812 8.5v13.224h-8.5v-4.902h-2.2v14.607h-29.612z"/><path fill="#434649" d="m34.738 51.631h-5.202-9.506v7.919h14.708z"/><path fill="#845a42" d="m34.737 65.26h29.61v4.801h-29.61z"/><g fill="#ffc34a"><path d="m44.14 65.26h6.501v4.801h-6.501z"/><path d="m15.532 49.05h11.854v2.581h-11.854z"/></g><path fill="#96a7bc" d="m24.734 27.04l-3-3.398-3 3.398v22.01h6z"/><path fill="#b6cadd" d="m21.733 23.642v25.408h-3v-22.01z"/><path fill="#845a42" d="m20.03 51.631h5.802v7.923h-5.802z"/><path fill="#383d42" d="m53 74.56h8.487v12.539h-8.487z"/><g fill="#845a42"><path d="m53 82.27h8.487v4.832h-8.487z"/><path d="m66.55 61.05h8.502v3.802h-8.502z"/></g><path fill="#7890a8" d="m57.24 45.29h25.665v33.17h-25.665z"/><path fill="#b6cadd" d="m40.63 51.631c.079-.771 0-23.689 0-23.689h25.917v-5.8h-31.81v29.489h5.893"/><path fill="#9b3e71" d="m47.39 15.921h6.22v6.221h-6.22z"/><g fill="#aa5580"><path d="m53.5 9.812h6.221v6.221h-6.221z"/><path d="m59.722 9.812h6.221v6.221h-6.221z"/></g><path fill="#383d42" d="m37.55 74.56h8.488v12.539h-8.488z"/><path fill="#845a42" d="m37.55 82.27h8.488v4.832h-8.488z"/><path fill="#383d42" d="m61.49 49.52h17.13v25.03h-17.13z"/><path fill="#7890a8" d="m63.726 55.45h6.221v6.221h-6.221z"/><path fill="#8aa7bf" d="m57.24 45.29h4.25v4.25h-4.25z"/><path fill="#7890a8" d="m70.29 62.02h6.221v6.221h-6.221z"/><path opacity=".3" fill="#330606" d="m57.24 40.15h-5.404v34.41h5.404v-29.27h9.31v-5.14z"/><path fill="#2e343a" d="m38.639 34.446h20.612v5.701h-20.612z"/></svg>