<svg xmlns="http://www.w3.org/2000/svg" viewBox="0 0 100 100" enable-background="new 0 0 100 100"><circle cx="50" cy="50" r="50" fill="#3f273f"/><path d="m69.5 32.7l-10.3-3.7-14 2.1-20 20 .6-3.5-2.1-9.1-1.9-4.4 5.5-5.5-4.3-1.4-1.3-6.3-21.1 21.2c-2.4 15.3 2.2 31.5 14 43.3 9.8 9.7 22.6 14.6 35.4 14.6l30.3-30.3.9-14.4-5.2-15-6.5-7.6" fill="#321e33"/><path d="m40.5 65.6c3 4.8 7.2 8.2 12 10.2 2.8 1 6.7.1 7.8-4.5 1.2-5.1-3.7-7.5-3.7-7.5-2.3-1-4.3-2.8-5.8-5.1-4-6.4-2.3-14.9 3.9-19.1s14.5-2.3 18.5 4.1c4 6.4 2.3 14.9-3.9 19.1-.4.3-.8.5-1.2.7-1.2.7-5.7 2.4-3.8 8.1 1.9 5.4 6.8 4.3 7.2 4.2 1.5-.6 3-1.4 4.4-2.3 11.9-7.9 15.3-24.3 7.6-36.6-7.7-12.3-23.6-15.8-35.5-7.9s-15.3 24.3-7.5 36.6" fill="#52cbce"/><path d="m57.9 53c.9 2.3 3.4 3.4 5.5 2.5s3.3-3.5 2.4-5.7c-.9-2.3-3.4-3.4-5.5-2.5s-3.3 3.5-2.4 5.7" fill="#ffc648"/><path d="m67.8 56.8c.3.8 1.1 1.1 1.9.8.7-.3 1.1-1.2.8-1.9-.3-.8-1.1-1.1-1.9-.8-.8.3-1.1 1.2-.8 1.9" fill="#52cc6e"/><path d="m64 42.9c-.2-.6.1-1.3.6-1.5.6-.2 1.2.1 1.5.6s-.1 1.3-.6 1.5-1.3 0-1.5-.6" fill="#52cbce"/><path d="m51.4 56.1c-.4-1 .1-2.2 1.1-2.6 1-.4 2.1.1 2.5 1.1.4 1-.1 2.2-1.1 2.6-1 .5-2.1 0-2.5-1.1" fill="#ff5252"/><g fill="#fff"><path d="m56.3 70c-1.1-.4-1.8-1.7-1.4-2.9.4-1.2 1.6-1.8 2.8-1.4 1.1.4 1.8 1.7 1.4 2.9-.4 1.2-1.7 1.8-2.8 1.4"/><path d="m54.5 75.2c-1.1-.4-1.8-1.7-1.4-2.9.4-1.2 1.6-1.8 2.8-1.4 1.1.4 1.8 1.7 1.4 2.9-.4 1.2-1.6 1.8-2.8 1.4"/></g><g fill="#272e47"><path d="m57.2 69.3c-.7-.3-1.1-1-.8-1.8s1-1.1 1.7-.9c.7.3 1.1 1 .8 1.8-.3.8-1 1.1-1.7.9"/><path d="m55.4 74.7c-.7-.3-1.1-1-.8-1.8s1-1.1 1.7-.9c.7.3 1.1 1 .8 1.8-.3.7-1 1.1-1.7.9"/></g><path d="m24.4 75c-3.4 0-6.1-2.8-6.1-6.3v-29.1c0-3.5 2.7-6.3 6.1-6.3s6.1 2.8 6.1 6.3v29.1c.1 3.4-2.7 6.3-6.1 6.3" fill="#52cbce"/><g fill="#fff"><ellipse cx="21.8" cy="37.5" rx="2.2" ry="2.3"/><ellipse cx="27.1" cy="37.5" rx="2.2" ry="2.3"/></g><g fill="#272e47"><ellipse cx="21.7" cy="36.8" rx="1.4" ry="1.4"/><ellipse cx="27.2" cy="36.8" rx="1.4" ry="1.4"/></g><path d="m29 23c-.9-2.5-3.6-3.7-6-2.7s-3.6 3.7-2.7 6.2 3.6 3.7 6 2.7 3.6-3.8 2.7-6.2" fill="#ffc648"/></svg>