<svg enable-background="new 0 0 100 100" viewBox="0 0 100 100" xmlns="http://www.w3.org/2000/svg"><path d="m66.4 55.6-16.4 4.4-16.4-4.4s-22.1 7.6-13.4 25.4h29.7.1 29.7c8.8-17.8-13.3-25.4-13.3-25.4z" fill="#815023"/><path d="m68.4 75.9-3.9-7.2-2.2-5.7-11.8 2.2v-.1l-.5.1-.5-.1v.1l-11.8-2.2-2.2 5.7-3.9 7.2c-2.1 4-2.5 8.7-1.1 13 2.3 6.6 8.5 11.1 15.5 11.1h3.4.1 1 .1 3.4c7 0 13.2-4.5 15.5-11.1 1.4-4.3 1-9-1.1-13z" fill="#9d6835"/><circle cx="20" cy="20" fill="#9d6835" r="20"/><circle cx="20" cy="20" fill="#815023" r="11.6"/><circle cx="80" cy="20" fill="#9d6835" r="20"/><circle cx="80" cy="20" fill="#815023" r="11.6"/><path d="m82.5 32.9c0-18-14.5-29-32.5-29s-32.5 11-32.5 29 14.5 32.5 32.5 32.5 32.5-14.6 32.5-32.5z" fill="#b47f47"/><ellipse cx="50" cy="57.6" fill="#e1d496" rx="14" ry="9.4"/><path d="m36.4 37c-.5-2.1-2.7-3.5-4.8-2.9-2.1.5-3.5 2.7-2.9 4.8l1.5 6.1c.5 2.1 2.7 3.5 4.8 2.9s3.5-2.7 2.9-4.8z" fill="#3b2e3a"/><path d="m68.5 34.1c-2.1-.5-4.3.8-4.8 2.9l-1.5 6.1c-.5 2.1.8 4.3 2.9 4.8s4.3-.8 4.8-2.9l1.5-6.1c.5-2.1-.8-4.3-2.9-4.8z" fill="#3b2e3a"/><path d="m57.8 49c0 1.7-3.5 4.9-7.8 4.9s-7.8-3.2-7.8-4.9 3.5-3 7.8-3 7.8 1.3 7.8 3z" fill="#3b2e3a"/><circle cx="29.7" cy="86.1" fill="#b47f47" r="13.9"/><g fill="#e1d496"><circle cx="31.4" cy="89.2" r="7.8"/><circle cx="32.9" cy="77.5" r="2.9"/><circle cx="25.2" cy="78.2" r="3.6"/><circle cx="20.1" cy="85" r="2.9"/></g><circle cx="70.3" cy="86.1" fill="#b47f47" r="13.9"/><circle cx="68.6" cy="89.2" fill="#e1d496" r="7.8"/><circle cx="67.1" cy="77.5" fill="#e1d496" r="2.9"/><circle cx="74.8" cy="78.2" fill="#e1d496" r="3.6"/><circle cx="79.9" cy="85" fill="#e1d496" r="2.9"/></svg>