<svg enable-background="new 0 0 100 100" viewBox="0 0 100 100" xmlns="http://www.w3.org/2000/svg"><path d="m94.3 86.2-6.3 6.2-21.1-19.5 7.9-7.8z" fill="#fd2c2c"/><path d="m3.9 4.2 8.3 18.2c1.1 2.3 2.5 4.4 4.4 6.2l48.6 46.7 8.1-3.9 3.9-8.1-46.8-48.7c-1.8-1.8-3.9-3.3-6.2-4.4l-18.2-8.2c-1.4-.6-2.8.8-2.1 2.2z" fill="#86a9bc"/><path d="m75.5 66.5 1.5-3.2-46.6-48.7c-1.8-1.8-3.9-3.3-6.2-4.4l-18.2-8.2c-.7-.3-1.4-.1-1.8.3l67.3 67.3z" fill="#bdd1dd"/><circle cx="93.5" cy="91.7" fill="#f2ae56" r="6.5"/><path d="m82.5 54.4-13.1 13.1-13.1 13.1c1 1.8 3.3 2.3 5 1.1l12.7-9.5 9.5-12.8c1.3-1.6.8-4-1-5z" fill="#f2ae56"/><path d="m5.7 86.2 6.3 6.2 21.1-19.5-7.9-7.8z" fill="#fd2c2c"/><path d="m96.1 4.2-8.3 18.2c-1.1 2.3-2.5 4.4-4.4 6.2l-48.5 46.6-8.1-3.9-3.9-8.1 46.7-48.6c1.8-1.8 3.9-3.3 6.2-4.4l18.2-8.2c1.4-.6 2.8.8 2.1 2.2z" fill="#d9e4ec"/><path d="m24.5 66.5-1.5-3.2 46.7-48.6c1.8-1.8 3.9-3.3 6.2-4.4l18.1-8.3c.7-.3 1.4-.1 1.8.3l-67.2 67.3z" fill="#fffcf2"/><g fill="#fdd47a"><circle cx="6.5" cy="91.7" r="6.5"/><path d="m17.5 54.4 13.1 13.1 13.1 13.1c-1 1.8-3.3 2.3-5 1.1l-12.7-9.5-9.5-12.8c-1.3-1.6-.8-4 1-5z"/></g></svg>