<svg xmlns="http://www.w3.org/2000/svg" viewBox="0 0 100 100" enable-background="new 0 0 100 100"><circle fill="#368e36" cx="50" cy="50" r="50"/><path fill="#247c24" d="m18.975 31.396l-18.966 18.965c.165 23.25 16.198 42.729 37.814 48.14l29.895-29.895-12.548-2.99 25.855-25.855-62.05-8.364"/><path fill="#d66e6e" d="m36.01 31.395h25.827v12.346h-25.827z"/><path fill="#ffb3b3" d="m81.03 31.395h-21.527c.001 5.197-4.176 9.441-9.388 9.504-5.246.061-9.552-4.143-9.614-9.391 0-.04.005-.075.005-.113h-21.526v8.365l13.307 1.962v26.883h35.437v-26.883l13.307-1.962v-8.365"/><g opacity=".6" fill="#d66e6e"><path d="m21.938 40.2l2.122.31v-9.114h-2.122z"/><path d="m78.06 40.2v-8.804h-2.122v9.114z"/></g><circle fill="#ffd7d7" cx="58.33" cy="45.46" r="3.069"/></svg>